<svg preserveAspectRatio="none" width="100%" height="100%" overflow="visible" style="display: block;" viewBox="0 0 1461.01 230.86" fill="none" xmlns="http://www.w3.org/2000/svg">
<g id="Mask group" opacity="0.2">
<mask id="mask0_0_14" style="mask-type:alpha" maskUnits="userSpaceOnUse" x="0" y="0" width="1462" height="231">
<path id="Union" d="M138.058 18.0078L50.5088 230.86L0 212.852L87.5488 0L138.058 18.0078ZM239.784 18.0078L152.235 230.86L101.727 212.852L189.275 0L239.784 18.0078ZM341.565 18.0078L254.017 230.86L203.508 212.852L291.057 0L341.565 18.0078ZM443.356 18.0078L355.808 230.86L305.299 212.852L392.848 0L443.356 18.0078ZM545.112 18.0078L457.563 230.86L407.055 212.852L494.604 0L545.112 18.0078ZM646.892 18.0078L559.343 230.86L508.834 212.852L596.383 0L646.892 18.0078ZM748.647 18.0078L661.099 230.86L610.59 212.852L698.139 0L748.647 18.0078ZM850.401 18.0078L762.853 230.86L712.344 212.852L799.893 0L850.401 18.0078ZM952.208 18.0078L864.659 230.86L814.15 212.852L901.699 0L952.208 18.0078ZM1053.94 18.0078L966.388 230.86L915.879 212.852L1003.43 0L1053.94 18.0078ZM1155.69 18.0078L1068.14 230.86L1017.63 212.852L1105.18 0L1155.69 18.0078ZM1257.5 18.0078L1169.95 230.86L1119.44 212.852L1206.99 0L1257.5 18.0078ZM1359.25 18.0078L1271.7 230.86L1221.2 212.852L1308.74 0L1359.25 18.0078ZM1461.01 18.0078L1373.46 230.86L1322.95 212.852L1410.5 0L1461.01 18.0078Z" fill="var(--fill-0, white)"/>
</mask>
<g mask="url(#mask0_0_14)">
<rect id="Rectangle 161126053" x="-0.00585938" y="71" width="1198" height="88" fill="var(--fill-0, #3CDDE6)" fill-opacity="0.15"/>
</g>
</g>
</svg>
