<svg preserveAspectRatio="none" width="100%" height="100%" overflow="visible" style="display: block;" viewBox="0 0 322.939 560.263" fill="none" xmlns="http://www.w3.org/2000/svg">
<g id="Group 1707479043">
<path id="Vector" d="M124.5 354.012C124.764 354.022 124.941 354.03 125.121 354.062C125.307 354.096 125.492 354.163 125.759 354.331C125.784 354.417 125.815 354.535 125.842 354.693C125.887 354.943 125.927 355.259 125.965 355.637C126.039 356.394 126.096 357.372 126.139 358.51C126.226 360.782 126.258 363.662 126.259 366.603C126.261 369.544 126.235 372.541 126.208 375.049C126.194 376.301 126.181 377.433 126.171 378.374L126.154 380.555L126.13 448.368V448.369L126.192 474.632C126.198 476.235 126.252 479.317 126.23 482.329C126.219 483.833 126.189 485.312 126.125 486.57C126.06 487.839 125.963 488.848 125.826 489.432C125.538 490.659 124.862 491.858 123.925 493.068C122.988 494.278 121.812 495.473 120.55 496.7C118.05 499.129 115.193 501.694 113.483 504.613C111.572 507.875 110.469 509.914 109.676 512.064C108.912 514.132 108.44 516.285 107.79 519.699L6.77999 519.707H6.77706C6.67053 519.707 6.57739 519.709 6.49679 519.711C6.41501 519.712 6.34931 519.713 6.29074 519.714C6.1728 519.714 6.11071 519.709 6.06222 519.7C5.9951 519.688 5.92114 519.663 5.73605 519.56C5.71733 519.122 5.8012 518.525 5.97824 517.805C6.18452 516.967 6.50135 516.018 6.86007 515.056C7.58819 513.106 8.43388 511.24 8.88546 510.094C9.54951 508.406 10.8438 504.452 12.1755 500.692C12.8449 498.802 13.5264 496.953 14.1501 495.439C14.7041 494.094 15.1935 493.063 15.572 492.491L15.7273 492.274C17.429 490.121 20.4638 487.234 23.654 484.362C26.8085 481.522 30.1687 478.649 32.3689 476.649L81.1902 432.371C83.0643 430.675 85.254 428.755 87.5818 426.708C89.9081 424.661 92.3705 422.488 94.7839 420.291C99.6045 415.901 104.255 411.391 107.247 407.571L107.277 407.532L107.3 407.488C108.591 404.933 110.906 401.59 113.124 398.17C115.316 394.789 117.423 391.319 118.187 388.601C119.662 383.353 120.54 377.285 121.395 371.267C122.253 365.235 123.088 359.254 124.472 354.115L124.5 354.012Z" stroke="var(--stroke-0, white)"/>
<path id="Vector_2" d="M200.086 354.012C199.821 354.022 199.645 354.03 199.465 354.062C199.278 354.096 199.093 354.163 198.826 354.331C198.802 354.417 198.771 354.535 198.743 354.693C198.699 354.943 198.658 355.259 198.621 355.637C198.547 356.394 198.49 357.372 198.446 358.51C198.359 360.782 198.328 363.662 198.326 366.603C198.324 369.544 198.351 372.541 198.378 375.049C198.391 376.301 198.405 377.433 198.415 378.374L198.431 380.555L198.456 448.368V448.369L198.393 474.632C198.387 476.235 198.333 479.317 198.355 482.329C198.366 483.833 198.397 485.312 198.461 486.57C198.525 487.839 198.622 488.848 198.76 489.432C199.047 490.659 199.724 491.858 200.661 493.068C201.598 494.278 202.774 495.473 204.036 496.7C206.535 499.129 209.392 501.694 211.102 504.613C213.014 507.875 214.116 509.914 214.91 512.064C215.673 514.132 216.146 516.285 216.796 519.699L317.806 519.707H317.808C317.915 519.707 318.008 519.709 318.089 519.711C318.17 519.712 318.236 519.713 318.295 519.714C318.413 519.714 318.475 519.709 318.523 519.7C318.59 519.688 318.664 519.663 318.849 519.56C318.868 519.122 318.784 518.525 318.607 517.805C318.401 516.967 318.084 516.018 317.725 515.056C316.997 513.106 316.152 511.24 315.7 510.094C315.036 508.406 313.742 504.452 312.41 500.692C311.741 498.802 311.059 496.953 310.435 495.439C309.881 494.094 309.392 493.063 309.014 492.491L308.858 492.274C307.156 490.121 304.122 487.234 300.931 484.362C297.777 481.522 294.417 478.649 292.217 476.649L243.395 432.371C241.521 430.675 239.331 428.755 237.004 426.708C234.677 424.661 232.215 422.488 229.802 420.291C224.981 415.901 220.33 411.391 217.339 407.571L217.308 407.532L217.286 407.488C215.995 404.933 213.68 401.59 211.462 398.17C209.269 394.789 207.163 391.319 206.398 388.601C204.923 383.353 204.046 377.285 203.19 371.267C202.333 365.235 201.498 359.254 200.113 354.115L200.086 354.012Z" stroke="var(--stroke-0, white)"/>
<path id="Vector_3" d="M124.214 396.4C124.22 397.148 124.225 397.918 124.232 398.698C124.186 398.601 124.139 398.508 124.087 398.421C124.135 397.747 124.177 397.073 124.214 396.4Z" stroke="var(--stroke-0, white)"/>
<g id="Vector_4">
<mask id="path-4-inside-1_0_5" fill="white">
<path d="M123.827 393.721C123.755 391.915 123.69 390.157 124.409 388.5C124.82 389.666 124.71 390.672 124.702 391.911L123.827 393.721Z"/>
</mask>
<path d="M123.827 393.721L122.828 393.76L124.727 394.156L123.827 393.721ZM124.409 388.5L125.352 388.167L124.505 385.768L123.492 388.102L124.409 388.5ZM124.702 391.911L125.602 392.347L125.701 392.144L125.702 391.918L124.702 391.911ZM123.827 393.721L124.826 393.681C124.753 391.838 124.712 390.312 125.326 388.898L124.409 388.5L123.492 388.102C122.667 390.002 122.757 391.993 122.828 393.76L123.827 393.721ZM124.409 388.5L123.466 388.833C123.803 389.788 123.711 390.552 123.702 391.905L124.702 391.911L125.702 391.918C125.71 390.792 125.838 389.544 125.352 388.167L124.409 388.5ZM124.702 391.911L123.802 391.476L122.927 393.285L123.827 393.721L124.727 394.156L125.602 392.347L124.702 391.911Z" fill="var(--stroke-0, white)" mask="url(#path-4-inside-1_0_5)"/>
</g>
<path id="Vector_5" d="M149.789 11.5721C155.27 13.0658 160.901 12.7994 166.448 12.6932C184.242 55.3129 184.038 98.9166 184.326 144.258C184.335 145.628 184.343 149.938 184.423 154.108C184.463 156.193 184.522 158.248 184.608 159.887C184.651 160.705 184.7 161.425 184.759 161.995C184.81 162.494 184.876 162.924 184.961 163.203L184.986 163.44C181.691 163.355 176.506 163.94 173.062 164.182C159.09 165.168 144.967 164.192 131.065 162.724C129.496 162.559 126.698 161.993 124.033 161.47C122.71 161.21 121.424 160.961 120.359 160.783C119.396 160.622 118.564 160.511 118.046 160.513L114.802 159.079C114.469 107.526 115.911 53.6488 149.789 11.5721Z" stroke="var(--stroke-0, white)"/>
<path id="Vector_6" d="M146.229 21.678C145.809 22.4945 145.331 23.3719 144.806 24.3069C143.205 27.1578 141.219 30.5103 139.427 34.2659C121.041 72.8163 120.661 118.207 119.71 159.996C119.658 160.042 119.606 160.087 119.554 160.133C119.485 160.194 119.415 160.255 119.345 160.316L118.368 160.451C118.264 159.501 118.219 157.845 118.223 155.75C118.228 153.274 118.296 150.241 118.391 147.164C118.581 141.008 118.874 134.706 118.96 132.363C120.047 103.015 122.503 69.8447 134.303 42.7991C137.256 36.0322 141.888 28.3853 146.229 21.678Z" stroke="var(--stroke-0, white)"/>
<path id="Vector_7" d="M166.058 19.9952C166.279 20.5499 166.504 21.1362 166.725 21.7305C167.581 24.0289 168.374 26.3831 168.771 27.4815C179.178 56.2754 179.555 87.8278 180.405 118.187C180.83 133.404 180.992 147.208 180.982 162.443C180.203 162.493 179.778 162.475 178.917 162.406C178.908 162.38 178.894 162.35 178.883 162.314C178.83 162.135 178.777 161.887 178.727 161.571C178.626 160.942 178.543 160.089 178.475 159.074C178.339 157.048 178.265 154.418 178.225 151.724C178.145 146.363 178.2 140.698 178.157 139.2C177.296 109.82 176.977 80.396 172.604 51.2081C171.718 45.2954 170.431 39.4684 169.102 33.667C168.057 29.1061 166.988 24.5631 166.058 19.9952Z" stroke="var(--stroke-0, white)"/>
<path id="Vector_8" d="M165.18 36.36C165.293 36.8185 165.407 37.2868 165.517 37.7575C166.17 40.5313 166.746 43.3591 166.968 44.57C173.888 82.4533 173.708 123.978 173.759 162.618C173.577 162.611 173.46 162.604 173.34 162.582C173.187 162.553 173.027 162.496 172.706 162.344C172.682 162.233 172.652 162.061 172.621 161.817C172.571 161.422 172.525 160.895 172.48 160.249C172.391 158.958 172.315 157.216 172.248 155.161C172.115 151.051 172.022 145.703 171.953 140.224C171.814 129.278 171.767 117.794 171.669 114.688C171.098 96.657 170.169 78.4458 168.315 60.4899C167.807 55.5623 167.116 50.6542 166.433 45.7604C165.996 42.6236 165.562 39.492 165.18 36.36Z" stroke="var(--stroke-0, white)"/>
<path id="Vector_9" d="M120.857 165.38C138.153 168.749 153.899 168.585 171.288 168.589L171.236 176.063C168.379 173.55 165.654 171.736 162.762 171.267C159.547 170.747 156.251 171.902 152.485 175.263C150.52 177.016 148.135 180.047 146.873 182.558L146.636 183.054C138.921 200.05 134.811 218.902 130.905 237.029H130.904L130.902 237.04C128.708 248.432 126.754 266.173 126.201 277.17V277.19C126.106 287.74 124.864 296.984 123.412 307.454C122.652 312.939 121.967 319.093 120.958 324.704C120.702 318.234 120.88 310.267 120.877 304.371L120.864 263.246L120.791 200.48C120.776 188.802 120.554 177.016 120.857 165.38Z" stroke="var(--stroke-0, white)"/>
<path id="Vector_10" d="M195.781 497.209C197.623 498.415 198.924 499.325 200.519 500.854C203.99 504.214 206.679 508.3 208.398 512.816V512.817C210.473 518.229 211.695 526.49 212.429 534.934C213.134 543.051 213.384 551.285 213.522 557.218C210.002 556.249 207.726 555.735 203.947 555.228L203.932 555.226L203.916 555.225L202.001 555.103C192.715 554.583 184.751 555.206 175.739 558.508C175.165 554.55 175.058 548.125 174.909 544.09C174.234 525.705 174.668 513.567 182.481 497.108L195.781 497.209Z" stroke="var(--stroke-0, white)"/>
<path id="Vector_11" d="M198.775 502.919C201.519 504.813 203.66 507.92 205.325 511.799C207.165 516.084 208.401 521.256 209.24 526.633C210.863 537.033 210.985 548.107 211.152 554.852C210.001 554.543 208.991 554.353 207.785 554.12H207.784C202.533 553.06 200.079 552.898 195.107 552.906C200.638 533.879 201.523 522.311 198.775 502.919Z" stroke="var(--stroke-0, white)"/>
<path id="Vector_12" d="M181.817 505.963C181.223 508.018 180.537 510.233 180.373 511.222C177.96 525.777 178.762 539.682 179.813 554.173C179.577 554.553 179.379 554.706 179.129 554.825C178.969 554.901 178.781 554.966 178.521 555.053C178.367 555.105 178.193 555.164 177.999 555.234C177.954 555.134 177.909 555.016 177.865 554.88C177.764 554.565 177.677 554.18 177.602 553.74C177.452 552.859 177.358 551.791 177.3 550.686C177.186 548.476 177.218 546.174 177.214 545C177.187 538.089 177.129 530.291 177.93 522.679C178.582 516.486 179.801 510.444 182.052 505.126C181.975 505.4 181.899 505.681 181.817 505.963Z" stroke="var(--stroke-0, white)"/>
<path id="Vector_13" d="M126.642 497.231C130.792 497.028 135.72 497.145 139.984 497.158C147.946 513.845 147.979 525.432 147.31 543.927C147.224 546.331 147.265 549.028 147.233 551.659C147.204 554.064 147.109 556.435 146.809 558.57C141.914 556.47 137.259 555.855 132.09 555.189L132.073 555.187L132.056 555.186L130.345 555.085C122.222 554.646 117.24 554.983 109.036 557.234C109.218 544.975 109.668 532.646 111.881 520.569C113.723 510.511 118.163 502.97 126.642 497.231Z" stroke="var(--stroke-0, white)"/>
<path id="Vector_14" d="M137.988 502.232C140.206 503.978 141.846 507.091 143.023 511.103C144.339 515.589 145.047 521.092 145.384 526.777C146.034 537.758 145.298 549.325 144.959 555.383C142.735 554.761 141.066 554.347 138.679 553.918C136.871 553.539 135.086 553.299 133.309 553.065C131.724 552.856 130.145 552.649 128.538 552.352C135.555 536.683 139.416 519.464 137.988 502.232Z" stroke="var(--stroke-0, white)"/>
<path id="Vector_15" d="M122.158 504.352C115.896 515.34 114.602 529.521 113.959 541.797C113.851 543.853 113.876 545.873 113.871 547.842C113.866 549.76 113.832 551.637 113.627 553.503C113.31 553.791 112.919 553.977 112.45 554.118C112.061 554.235 111.671 554.311 111.243 554.398C111.206 553.683 111.19 552.582 111.192 551.449C111.195 550.337 111.215 549.226 111.247 548.462L111.282 547.829C111.843 540.845 112.326 531.998 114.012 523.636C115.509 516.21 117.943 509.25 122.158 504.352Z" stroke="var(--stroke-0, white)"/>
<path id="Vector_16" d="M216.723 537.434C224.549 536.92 234.334 537.164 242.303 537.164L285.381 537.19V537.191L310.336 537.3V537.299C311.612 537.307 314.044 537.282 316.508 537.303C318.639 537.322 320.685 537.377 321.848 537.514C321.253 541.779 320.552 546.029 319.744 550.263C308.93 551.651 294.444 552.585 283.463 553.57H283.46L217.961 559.715C217.857 556.633 217.787 552.457 217.627 548.425C217.466 544.389 217.21 540.374 216.723 537.434Z" stroke="var(--stroke-0, white)"/>
<path id="Vector_17" d="M219.075 537.303C226.447 536.965 235.114 537.164 242.303 537.164L285.381 537.19V537.191L304.867 537.276L304.952 537.661L305.034 538.031L305.117 538.409L305.504 538.422C305.787 538.433 306.032 538.428 306.239 538.424C306.452 538.42 306.613 538.417 306.759 538.427C307.021 538.445 307.227 538.5 307.497 538.697L307.595 538.769L307.717 538.788C309.241 539.015 310.806 539.175 312.372 539.309C304.647 540.061 295.536 540.242 286.302 540.244C274.987 540.246 263.477 539.982 254.201 540.191L253.709 540.202L253.712 540.694C253.746 546.067 253.755 549.097 252.801 554.338C247.351 555.039 241.765 555.492 236.2 555.934C230.693 556.371 225.205 556.801 219.909 557.451C219.459 552.512 218.677 544.039 218.582 538.883C218.728 538.7 218.868 538.527 219.021 538.333L219.223 538.128L219.55 537.794L219.239 537.446C219.189 537.39 219.132 537.343 219.075 537.303Z" stroke="var(--stroke-0, white)"/>
<path id="Vector_18" d="M219.075 537.303C226.447 536.965 235.114 537.164 242.303 537.164L285.381 537.19V537.191L304.867 537.276L304.952 537.661L304.98 537.791L250.355 537.762H250.354C246.898 537.77 240.398 537.894 234.112 537.921C228.22 537.947 222.482 537.888 219.359 537.581L219.239 537.446C219.189 537.39 219.132 537.343 219.075 537.303Z" stroke="var(--stroke-0, white)"/>
<path id="Vector_19" d="M79.4041 537.2C88.0549 537.2 97.1586 537.039 105.754 537.373C105.471 539.734 105.092 543.989 104.856 548.226C104.729 550.52 104.643 552.815 104.638 554.805C104.632 556.578 104.691 558.136 104.847 559.241C104.765 559.268 104.662 559.297 104.533 559.322C104.227 559.381 103.835 559.419 103.375 559.434C102.455 559.465 101.314 559.41 100.133 559.316C98.9538 559.222 97.7478 559.09 96.702 558.97C95.6634 558.849 94.7684 558.739 94.2342 558.69H94.2352L70.8709 556.526L3.19902 550.263C2.41689 546.035 1.73514 541.789 1.15508 537.53C2.46596 537.371 4.56381 537.312 6.73125 537.298C7.96498 537.289 9.18571 537.295 10.2811 537.302L13.0789 537.312L35.9578 537.203L79.4041 537.2Z" stroke="var(--stroke-0, white)"/>
<path id="Vector_20" d="M79.4041 537.2C88.0549 537.2 97.1586 537.039 105.754 537.373C105.471 539.734 105.092 543.989 104.856 548.226C104.729 550.52 104.643 552.815 104.638 554.805C104.634 555.877 104.655 556.869 104.706 557.731L103.685 557.478L103.652 557.471L103.617 557.467L102.151 557.325C100.696 557.193 99.269 557.086 97.8396 556.975C96.1631 556.845 94.4816 556.705 92.7342 556.513C94.2323 553.688 95.2104 551.477 95.6453 549.166C96.1149 546.671 95.9474 544.102 95.2039 540.569L95.1238 540.188L94.7342 540.173C81.0254 539.628 66.9287 539.972 52.8807 540.209C38.8719 540.445 24.9077 540.576 11.3816 539.621L10.9109 539.293C13.8003 538.96 16.3816 538.753 19.3943 538.559L19.6268 538.545L19.7645 538.357L20.0916 537.912L20.5594 537.276L35.9578 537.203L79.4041 537.2Z" stroke="var(--stroke-0, white)"/>
<path id="Vector_21" d="M79.4041 537.2C88.0549 537.2 97.1586 537.039 105.754 537.373C105.471 539.734 105.092 543.989 104.856 548.226C104.729 550.52 104.643 552.815 104.638 554.805C104.634 555.877 104.655 556.869 104.706 557.731L104.055 557.569C103.849 550.603 104.765 545.213 105.093 538.209L105.117 537.684L104.592 537.685L48.284 537.806C44.9155 537.806 39.1911 537.917 33.5936 537.942C28.4687 537.965 23.4384 537.913 20.2869 537.646L20.5594 537.276L35.9578 537.203L79.4041 537.2Z" stroke="var(--stroke-0, white)"/>
<g id="Vector_22">
<mask id="path-23-inside-2_0_5" fill="white">
<path d="M3.79171 539.112C6.14335 538.894 7.20045 538.835 9.54741 538.96L11.2124 540.118C8.74065 539.771 6.26696 539.435 3.79171 539.112Z"/>
</mask>
<path d="M3.79171 539.112L3.69926 538.116L3.66208 540.103L3.79171 539.112ZM9.54741 538.96L10.1184 538.139L9.88471 537.976L9.60049 537.961L9.54741 538.96ZM11.2124 540.118L11.0734 541.108L11.7833 539.297L11.2124 540.118ZM3.79171 539.112L3.88415 540.108C6.20341 539.892 7.20964 539.837 9.49432 539.958L9.54741 538.96L9.60049 537.961C7.19126 537.833 6.08329 537.895 3.69926 538.116L3.79171 539.112ZM9.54741 538.96L8.97645 539.781L10.6414 540.939L11.2124 540.118L11.7833 539.297L10.1184 538.139L9.54741 538.96ZM11.2124 540.118L11.3514 539.127C8.87653 538.78 6.39971 538.444 3.92134 538.12L3.79171 539.112L3.66208 540.103C6.13421 540.427 8.60477 540.761 11.0734 541.108L11.2124 540.118Z" fill="var(--stroke-0, white)" mask="url(#path-23-inside-2_0_5)"/>
</g>
<path id="Vector_23" d="M134.429 324.273C141.87 322.789 152.459 322.559 160.254 322.661C160.028 326.159 159.879 338.306 159.873 350.164C159.87 356.463 159.907 362.695 159.994 367.531C160.038 369.948 160.095 372.019 160.165 373.577C160.2 374.355 160.238 375.01 160.281 375.516C160.322 376.006 160.371 376.4 160.435 376.629L160.685 377.528C160.686 377.571 160.686 377.615 160.686 377.659C149.219 377.591 142.029 377.628 130.599 380.063L130.664 379.6L130.67 379.558L130.669 379.516C130.217 365.786 130.761 351.908 130.548 338.112C130.481 333.8 130.493 329.3 130.672 324.999L134.427 324.273H134.429Z" stroke="var(--stroke-0, white)"/>
<path id="Vector_24" d="M133.827 325.716C133.876 325.856 133.93 326.044 133.98 326.287C134.078 326.764 134.154 327.379 134.212 328.099C134.329 329.539 134.368 331.351 134.368 333.217C134.369 335.082 134.33 336.99 134.291 338.619C134.253 340.241 134.214 341.6 134.216 342.346L134.296 377.982L134.297 378.539L134.851 378.477C144.635 377.393 151.335 377.604 160.679 377.009C160.682 377.226 160.683 377.442 160.686 377.659C149.219 377.591 142.029 377.629 130.599 380.063L130.627 379.855C130.841 379.744 131.134 379.593 131.41 379.434C131.609 379.32 131.813 379.194 131.987 379.07C132.146 378.956 132.335 378.806 132.451 378.633C132.545 378.49 132.601 378.309 132.64 378.149C132.682 377.975 132.717 377.765 132.747 377.527C132.809 377.05 132.855 376.425 132.89 375.678C132.96 374.183 132.985 372.164 132.982 369.8C132.975 365.07 132.854 358.926 132.746 352.754C132.639 346.577 132.545 340.371 132.59 335.507C132.613 333.074 132.67 330.984 132.778 329.405C132.832 328.615 132.897 327.96 132.976 327.459C133.037 327.067 133.102 326.804 133.158 326.647L133.21 326.525C133.325 326.318 133.397 326.18 133.469 326.059C133.537 325.945 133.583 325.884 133.624 325.842C133.663 325.803 133.716 325.764 133.827 325.716Z" stroke="var(--stroke-0, white)"/>
<path id="Vector_25" d="M160.264 378.66C160.143 380.231 160.052 383.716 159.989 388.159C159.916 393.268 159.879 399.69 159.88 406.046C159.881 412.403 159.921 418.696 160 423.548C160.04 425.974 160.088 428.043 160.148 429.579C160.177 430.347 160.21 430.986 160.245 431.472C160.279 431.938 160.319 432.312 160.373 432.514L160.625 433.446C152.704 433.186 138.467 434.197 130.73 435.927L130.642 435.107C130.118 417.567 130.724 398.875 130.513 381.107C141.867 378.663 148.959 378.595 160.264 378.66Z" stroke="var(--stroke-0, white)"/>
<path id="Vector_26" d="M134.105 382.141C134.198 382.759 134.259 383.721 134.297 384.9C134.338 386.217 134.349 387.772 134.344 389.352C134.336 392.488 134.268 395.784 134.27 397.388L134.339 434.154L134.34 434.746L134.924 434.646C142.906 433.274 152.408 433.1 160.654 432.884C160.657 433.054 160.66 433.241 160.664 433.442C152.75 433.178 138.48 434.189 130.73 435.923L130.683 435.49C130.891 435.426 131.083 435.364 131.253 435.293C131.532 435.176 131.79 435.027 131.998 434.8C132.416 434.342 132.513 433.693 132.541 432.832C132.672 428.836 132.594 424.797 132.639 420.821C132.724 413.462 132.776 406.101 132.795 398.74L132.802 391.379C132.801 390.604 132.722 389.664 132.652 388.707C132.581 387.738 132.518 386.735 132.542 385.79C132.566 384.841 132.676 383.986 132.932 383.305C133.15 382.726 133.462 382.293 133.901 382.019L134.105 382.141Z" stroke="var(--stroke-0, white)"/>
<path id="Vector_27" d="M160.055 267.414C160.173 273.335 160.14 279.333 160.092 285.34C160.043 291.511 159.979 297.694 160.055 303.8C160.078 305.677 160.016 308.993 160.019 312.29C160.021 315.207 160.077 318.121 160.302 319.886C157.727 319.962 152.653 320.098 147.673 320.365C144.987 320.509 142.321 320.692 140.086 320.927C137.871 321.159 136.021 321.448 135.002 321.818L134.921 321.848L134.856 321.902L133.923 322.669L133.709 322.844L133.744 323.118L133.778 323.38L130.702 323.975L130.716 323.366L130.717 323.34L130.715 323.313C130.16 316.638 130.572 304.956 130.549 297.658C130.526 290.456 130.181 276.866 130.899 269.918C134.255 268.95 139.691 268.337 145.264 267.961C150.75 267.591 156.318 267.452 160.055 267.414Z" stroke="var(--stroke-0, white)"/>
<path id="Vector_28" d="M131.743 323.266L131.745 323.265C131.748 323.263 131.751 323.26 131.756 323.257C131.775 323.243 131.799 323.225 131.835 323.2C131.903 323.152 131.999 323.084 132.096 323.013C132.191 322.942 132.295 322.863 132.378 322.793C132.418 322.759 132.463 322.72 132.502 322.68C132.521 322.66 132.548 322.631 132.574 322.596C132.587 322.578 132.658 322.483 132.676 322.344V322.343C132.814 321.23 132.845 319.617 132.848 318.063C132.852 316.49 132.828 314.983 132.848 314.018C132.884 312.259 132.889 308.991 132.906 305.005C132.923 301.015 132.951 296.299 133.032 291.633C133.113 286.966 133.248 282.355 133.476 278.574C133.591 276.684 133.729 275.006 133.894 273.636C133.934 273.312 133.975 273.007 134.016 272.722C134.21 274.229 134.177 275.943 134.084 277.68C134.015 278.961 133.912 280.281 133.861 281.46C133.81 282.647 133.807 283.763 133.944 284.688C134.154 286.105 134.214 288.92 134.205 292.449C134.196 295.964 134.119 300.141 134.061 304.259C134.004 308.373 133.967 312.428 134.039 315.686C134.075 317.315 134.138 318.753 134.241 319.902C134.322 320.809 134.433 321.577 134.588 322.124L133.92 322.673L133.707 322.849L133.742 323.123L133.775 323.385L130.7 323.98L130.706 323.711C131.008 323.6 131.35 323.47 131.642 323.324C131.653 323.319 131.662 323.317 131.667 323.314L131.439 322.867C131.452 322.857 131.636 322.729 131.818 322.594C131.881 322.693 131.932 322.808 131.939 322.885C131.931 322.958 131.897 323.069 131.879 323.106C131.848 323.164 131.812 323.202 131.806 323.208C131.794 323.221 131.784 323.231 131.779 323.235C131.769 323.245 131.76 323.252 131.757 323.255C131.75 323.26 131.745 323.265 131.744 323.266H131.743Z" stroke="var(--stroke-0, white)"/>
<path id="Vector_29" d="M130.731 436.952C138.197 435.241 152.24 434.215 160.242 434.435C159.952 437.412 160.097 440.542 160.055 443.453C159.95 450.759 160.024 458.101 160.087 465.433C160.149 472.603 160.199 479.765 160.061 486.888L130.579 486.873L130.538 451.776C130.537 450.47 130.5 447.134 130.514 443.877C130.521 442.251 130.541 440.651 130.583 439.346C130.618 438.283 130.667 437.449 130.731 436.952Z" stroke="var(--stroke-0, white)"/>
<path id="Vector_30" d="M133.373 437.945C133.605 437.949 133.841 437.98 134.219 438.067C134.23 438.175 134.243 438.309 134.254 438.468C134.282 438.865 134.308 439.405 134.332 440.069C134.382 441.396 134.425 443.209 134.462 445.353C134.536 449.64 134.586 455.243 134.611 460.917C134.658 471.583 134.619 482.463 134.505 485.354C134.077 485.361 133.776 485.369 133.47 485.34C133.155 485.311 132.849 485.24 132.444 485.057C132.425 484.927 132.406 484.746 132.389 484.511C132.361 484.125 132.342 483.634 132.328 483.066C132.302 481.931 132.3 480.511 132.312 479.055C132.335 476.173 132.407 473.087 132.412 471.976V471.975L132.554 437.995C132.915 437.96 133.144 437.94 133.373 437.945Z" stroke="var(--stroke-0, white)"/>
<path id="Vector_31" d="M57.9233 243.278C58.0396 243.279 58.0693 243.284 58.0737 243.285C58.0763 243.286 58.0847 243.29 58.103 243.301C58.1321 243.317 58.1708 243.341 58.2358 243.384C58.3375 243.45 58.4804 243.542 58.6879 243.669C58.6938 243.695 58.7012 243.724 58.7075 243.757C58.7316 243.885 58.7548 244.054 58.7768 244.268C58.8207 244.694 58.8559 245.267 58.8833 245.973C58.9379 247.382 58.9598 249.292 58.9585 251.554C58.9558 256.076 58.8618 261.984 58.7573 268.066C58.6528 274.147 58.5383 280.403 58.4965 285.613C58.4549 290.812 58.4843 295.006 58.6733 296.942L58.6889 297.101L58.7924 297.221C59.3028 297.813 59.824 298.114 60.4096 298.325C60.6918 298.427 60.99 298.509 61.2944 298.591C61.6036 298.674 61.9281 298.761 62.2885 298.876L62.9516 299.088L62.9399 298.392C62.8936 295.54 62.6274 282.436 62.4809 269.837C62.4077 263.537 62.3644 257.367 62.394 252.672C62.4088 250.324 62.4413 248.348 62.4975 246.911C62.5256 246.192 62.5596 245.614 62.5991 245.194C62.6124 245.053 62.6263 244.933 62.6401 244.833C63.6297 244.829 64.4334 244.863 65.478 244.938H65.479C65.7013 244.96 65.8553 244.964 65.9672 244.965C66.0066 244.965 66.0345 244.965 66.0542 244.965C66.0906 244.995 66.1452 245.043 66.2475 245.133L66.3569 245.23L66.5014 245.252C70.7387 245.913 77.117 245.919 81.5991 245.972C81.6021 249.545 81.3944 261.848 81.2729 273.797C81.209 280.079 81.1695 286.261 81.1997 291.011C81.2147 293.385 81.2477 295.407 81.3032 296.905C81.3309 297.654 81.364 298.278 81.4047 298.753C81.4251 298.99 81.4478 299.195 81.4731 299.362C81.4969 299.52 81.5274 299.679 81.5747 299.802L81.6596 300.023L81.8852 300.098L82.604 300.334L82.8022 300.399L82.9877 300.306L83.7573 299.914L83.8979 299.843L83.9721 299.702C84.7016 298.326 84.8227 296.38 84.7866 294.493C84.7683 293.537 84.7083 292.566 84.6538 291.656C84.5989 290.741 84.5494 289.893 84.5502 289.159L84.5444 261.693V261.692C84.5433 260.641 84.4733 259.196 84.4184 257.612C84.3632 256.019 84.3225 254.268 84.3745 252.571C84.4265 250.871 84.5718 249.245 84.8833 247.897C85.1705 246.652 85.584 245.717 86.1293 245.157L86.6987 245.259C86.8491 245.455 86.998 245.755 87.1313 246.174C87.2898 246.672 87.4143 247.295 87.5073 248.014C87.6932 249.451 87.7491 251.22 87.7368 253.046C87.7245 254.869 87.6445 256.735 87.5629 258.36C87.4819 259.975 87.3974 261.37 87.3793 262.23C87.0154 274.769 86.7872 287.314 86.6948 299.858L86.6918 300.356L87.1899 300.361C89.0053 300.379 90.4641 300.125 92.1811 299.873L92.6303 299.808L92.6079 299.354C91.7451 281.738 92.0321 263.479 91.8022 245.79C91.8003 245.643 91.8217 245.56 91.8413 245.513C91.8592 245.469 91.8846 245.434 91.9301 245.394C91.9825 245.348 92.0558 245.3 92.1733 245.233C92.2309 245.201 92.3039 245.158 92.3842 245.113L92.8198 245.248C92.9072 245.455 92.9971 245.764 93.0766 246.185C93.1773 246.718 93.2556 247.381 93.3159 248.141C93.4364 249.659 93.4804 251.526 93.4838 253.435C93.4873 255.341 93.4505 257.281 93.4135 258.943C93.3767 260.6 93.3386 261.993 93.3393 262.789L93.3735 299.352V299.877L93.8989 299.851C94.9258 299.799 95.8548 299.77 96.7661 299.758C91.4312 300.817 85.093 301.439 78.7836 301.439C70.9221 301.437 63.1602 300.472 57.4643 298.237C57.3486 294.994 57.2692 281.948 57.2915 269.307C57.303 262.754 57.342 256.317 57.4165 251.423C57.4537 248.975 57.4991 246.916 57.5551 245.422C57.5832 244.674 57.6143 244.072 57.6469 243.636C57.6573 243.497 57.6697 243.378 57.6801 243.276C57.7816 243.277 57.862 243.278 57.9233 243.278Z" stroke="var(--stroke-0, white)"/>
<path id="Vector_32" d="M66.0576 244.965C66.0656 244.971 66.074 244.979 66.084 244.988C66.131 247.557 66.3064 260.404 66.3818 272.909C66.4208 279.368 66.4335 285.732 66.3886 290.542C66.3662 292.947 66.3292 294.959 66.2744 296.398C66.2469 297.119 66.2147 297.689 66.1787 298.09C66.1712 298.174 66.1628 298.249 66.1553 298.315C66.1021 298.31 66.055 298.306 66.0156 298.301C65.867 298.286 65.7823 298.271 65.7138 298.251C65.6109 298.22 65.502 298.164 65.2392 297.948C64.9344 296.416 64.9211 294.424 64.9873 292.344C65.0549 290.22 65.206 287.994 65.1767 286.222C64.9863 274.704 65.4314 263.17 65.6484 251.63C65.6909 249.375 65.7044 247.157 65.9707 244.965C66.0103 244.965 66.0381 244.964 66.0576 244.965Z" stroke="var(--stroke-0, white)"/>
<path id="Vector_33" d="M162.732 434.408C165.588 434.432 168.403 434.593 171.192 434.753C174.149 434.923 177.079 435.093 179.973 435.094C183.872 435.587 188.67 436.068 192.371 437.023C192.772 453.066 192.421 470.676 192.42 486.873L162.902 486.892C162.838 479.821 162.873 472.738 162.91 465.651C162.948 458.399 162.988 451.143 162.927 443.897C162.903 440.95 163.068 437.427 162.732 434.408Z" stroke="var(--stroke-0, white)"/>
<path id="Vector_34" d="M181.072 436.796C183.649 437.172 185.979 437.422 188.559 437.667C188.805 453.27 188.597 469.565 188.551 485.231L181.003 485.207C180.997 469.125 180.875 452.851 181.072 436.796Z" stroke="var(--stroke-0, white)"/>
<path id="Vector_35" d="M177.91 436.591L177.944 485.239L174.322 485.275L174.385 436.577L177.91 436.591Z" stroke="var(--stroke-0, white)"/>
<path id="Vector_36" d="M222.199 243.27C222.71 244.061 223.084 244.979 223.096 245.86C223.208 254.42 223.017 263.03 222.818 271.646C222.62 280.259 222.414 288.88 222.501 297.448L222.505 297.841L222.889 297.93C223.199 298.002 223.486 298.082 223.772 298.16C224.054 298.236 224.337 298.312 224.619 298.367C225.194 298.479 225.786 298.51 226.45 298.31L226.735 298.224L226.795 297.931C226.937 297.234 227.016 296.139 227.058 294.871C227.099 293.592 227.104 292.105 227.09 290.609C227.062 287.621 226.96 284.559 226.932 283.04V283.037C226.682 273.653 226.53 264.267 226.477 254.88C226.473 254.083 226.409 253.114 226.354 252.111C226.299 251.098 226.253 250.037 226.279 249.023C226.305 248.006 226.404 247.06 226.628 246.274C226.836 245.544 227.14 244.994 227.554 244.638C227.731 244.622 227.88 244.608 227.934 244.603C227.941 244.602 227.947 244.601 227.952 244.601C227.97 244.616 227.997 244.638 228.037 244.672C228.124 244.747 228.247 244.85 228.425 244.987C228.695 245.979 228.789 247.497 228.808 249.11C228.827 250.812 228.764 252.471 228.764 253.699L229.744 253.837C229.844 253.493 229.924 252.879 229.993 252.175C230.024 251.863 230.051 251.523 230.079 251.167L230.139 251.457L231.128 251.363L231.177 245.356C236.189 245.754 240.553 245.883 245.585 245.966C245.686 258.571 245.67 271.175 245.535 283.779V283.781C245.53 284.496 245.486 285.739 245.437 287.242C245.389 288.739 245.337 290.486 245.316 292.195C245.296 293.902 245.307 295.582 245.387 296.944C245.426 297.624 245.484 298.235 245.565 298.735C245.643 299.215 245.752 299.659 245.929 299.956L246.03 300.125L246.22 300.18L247.086 300.43L247.288 300.489L247.472 300.384C247.66 300.277 248.056 300.087 248.352 299.875C248.655 299.66 249.03 299.308 249.068 298.772C249.254 296.146 249.057 292.182 248.995 289.686C248.761 279.986 248.609 270.285 248.535 260.582V260.581C248.519 258.733 248.294 255.634 248.35 252.581C248.378 251.071 248.476 249.617 248.699 248.4C248.915 247.221 249.236 246.344 249.658 245.837C249.911 245.728 250.081 245.646 250.196 245.591C250.254 245.564 250.289 245.549 250.308 245.54C250.326 245.545 250.356 245.554 250.401 245.569C250.503 245.603 250.66 245.655 250.884 245.725C251.011 245.919 251.145 246.243 251.266 246.721C251.408 247.276 251.519 247.978 251.603 248.79C251.772 250.414 251.83 252.429 251.829 254.497C251.827 258.645 251.589 262.896 251.556 264.589L250.81 299.876L250.8 300.424L251.346 300.386C253.063 300.265 254.65 300.177 256.393 299.894L256.822 299.825L256.813 299.39L256.06 262.02C256.046 261.129 255.979 259.733 255.912 258.122C255.844 256.503 255.775 254.657 255.755 252.847C255.734 251.035 255.762 249.272 255.887 247.818C255.949 247.091 256.034 246.451 256.147 245.926C256.242 245.486 256.353 245.154 256.468 244.924L256.729 244.822L257.266 245.205C257.664 249.505 257.562 256.626 257.545 261.784V263.894L257.795 299.309L257.798 299.821L258.309 299.805L260.939 299.725C256.039 301.029 249.495 301.567 242.886 301.441C234.872 301.288 226.862 300.161 221.7 298.314C221.285 286.308 221.777 273.627 221.613 261.491C221.59 259.752 221.521 255.749 221.53 251.838C221.535 249.883 221.559 247.954 221.617 246.346C221.666 245.016 221.738 243.933 221.836 243.236L222.199 243.27Z" stroke="var(--stroke-0, white)"/>
<path id="Vector_37" d="M230.126 251.414C230.228 255.047 230.536 266.227 230.631 276.852C230.679 282.185 230.674 287.373 230.562 291.394C230.506 293.405 230.423 295.118 230.309 296.408C230.252 297.053 230.187 297.585 230.116 297.992C230.069 298.255 230.021 298.443 229.981 298.57L229.954 298.578C229.868 298.51 229.787 298.446 229.72 298.393C229.588 298.289 229.489 298.203 229.411 298.117C229.278 297.969 229.191 297.806 229.192 297.498C229.209 292.796 229.284 287.664 229.385 283.007C229.653 273.258 229.777 263.506 229.76 253.753C229.849 253.398 229.926 252.825 229.99 252.175C230.02 251.862 230.047 251.522 230.076 251.165L230.126 251.414Z" stroke="var(--stroke-0, white)"/>
<path id="Vector_38" d="M58.0753 201.04C58.4343 201.119 58.6883 201.251 58.8722 201.406C59.1132 201.61 59.2754 201.888 59.3791 202.245C59.5969 202.994 59.5259 203.951 59.4748 204.964L60.3351 205.093C60.3524 205.451 60.3701 205.817 60.3908 206.184C60.4425 207.101 60.5049 208.007 60.5822 208.731C60.6208 209.093 60.6644 209.417 60.713 209.679C60.7569 209.916 60.8168 210.178 60.9201 210.354L61.7794 211.822L61.8517 210.123C61.915 208.639 61.7462 207.027 61.7091 205.671C61.6724 204.323 61.76 203.189 62.2003 202.329C62.7536 202.04 63.0942 201.976 63.4611 201.98C63.6779 201.983 63.9127 202.01 64.2267 202.05C64.5165 202.086 64.8616 202.129 65.2814 202.164L65.8332 202.388L65.9015 202.416L65.9748 202.423C71.684 202.944 76.7367 203.003 82.4669 202.851L83.216 203.108L83.3429 203.151L83.4748 203.125C85.1734 202.788 86.5363 202.836 88.2677 202.869C88.2562 205.838 88.0021 214.201 87.8595 222.248C87.784 226.511 87.7412 230.68 87.7853 233.889C87.8073 235.493 87.8508 236.864 87.924 237.891C87.9605 238.404 88.0052 238.84 88.0597 239.179C88.0869 239.349 88.1182 239.504 88.1544 239.635C88.1883 239.758 88.2356 239.898 88.3117 240.015L88.4679 240.255L88.7521 240.242L90.6232 240.164L90.8595 240.154L91.0021 239.965C91.1941 239.709 91.308 239.333 91.3878 238.938C91.4716 238.524 91.532 238.011 91.5744 237.423C91.6592 236.244 91.6762 234.712 91.6535 232.956C91.608 229.442 91.4022 224.972 91.2423 220.534C91.0822 216.087 90.968 211.669 91.1046 208.227C91.173 206.505 91.3037 205.047 91.5168 203.96C91.6234 203.416 91.7477 202.982 91.8859 202.662C91.9526 202.507 92.0179 202.392 92.0773 202.306C93.1019 202.892 93.4549 204.031 93.4552 205.445C93.4591 216.856 93.1581 228.431 93.4035 239.858L93.4142 240.352L93.9084 240.347C94.1223 240.345 94.3439 240.34 94.5714 240.337C93.5171 240.488 92.3476 240.641 91.09 240.783C87.0409 241.24 82.125 241.608 77.3087 241.69C72.4869 241.772 67.7889 241.566 64.1652 240.883C62.3516 240.54 60.8342 240.084 59.7121 239.501C58.5845 238.915 57.923 238.237 57.6906 237.486C57.588 237.154 57.4883 236.355 57.4064 235.137C57.3261 233.943 57.2661 232.403 57.2248 230.635C57.1421 227.101 57.1348 222.67 57.1945 218.301C57.2541 213.931 57.3799 209.629 57.5607 206.35C57.6512 204.71 57.7558 203.334 57.8712 202.336C57.9291 201.835 57.9881 201.44 58.048 201.159C58.0572 201.116 58.0666 201.076 58.0753 201.04Z" stroke="var(--stroke-0, white)"/>
<path id="Vector_39" d="M60.4217 206.693C60.4673 207.432 60.5189 208.142 60.5819 208.733C60.6205 209.094 60.6632 209.419 60.7118 209.681C60.745 209.86 60.7877 210.054 60.8514 210.214C60.9164 217.744 60.8898 225.329 61.2997 232.871C61.3405 233.621 61.3399 234.732 61.1698 235.766C61.0847 236.282 60.96 236.765 60.786 237.166C60.6843 237.401 60.5684 237.597 60.4432 237.756L60.3573 237.678C60.2944 237.345 60.2348 236.738 60.1903 235.877C60.14 234.904 60.1069 233.654 60.0878 232.212C60.0494 229.33 60.0667 225.698 60.1112 222.018C60.1838 216.014 60.3298 209.89 60.4217 206.693Z" stroke="var(--stroke-0, white)"/>
<path id="Vector_40" d="M83.0977 209.073C83.1816 213.464 83.163 217.975 83.1992 222.199C83.2422 227.2 83.6544 232.753 83.0381 237.675C82.8874 234 83.0428 230.32 83.0635 226.58C83.117 220.745 83.1277 214.909 83.0977 209.073Z" stroke="var(--stroke-0, white)"/>
<path id="Vector_41" d="M65.7917 212.137C65.8819 215 65.9782 218.129 66.0417 221.208C66.1227 225.141 66.1551 229 66.0729 232.148C66.0461 233.176 66.0043 234.126 65.9509 234.975C65.922 234.373 65.8967 233.713 65.8747 233.003C65.7748 229.789 65.742 225.596 65.7438 221.312C65.7451 218.183 65.7668 215.01 65.7917 212.137Z" stroke="var(--stroke-0, white)"/>
<path id="Vector_42" d="M58.0579 303.064C58.0713 303.097 58.0892 303.139 58.1057 303.191C58.1505 303.333 58.194 303.521 58.2356 303.754C58.3189 304.219 58.3871 304.829 58.4407 305.547C58.5477 306.982 58.5955 308.807 58.6116 310.686C58.6437 314.455 58.5473 318.364 58.5452 319.793L58.3001 356.931L58.2971 357.304L58.6545 357.413L62.4211 358.555L63.0667 358.751V358.077C63.0676 355.366 63.0055 342.137 63.0217 329.433C63.0298 323.085 63.0578 316.875 63.1223 312.19C63.1546 309.847 63.1965 307.889 63.2493 306.486C63.2757 305.784 63.3045 305.226 63.3362 304.831C63.3411 304.77 63.3479 304.714 63.3528 304.662C63.4584 304.686 63.5649 304.713 63.6653 304.748C63.7973 304.794 63.8907 304.841 63.9475 304.884C63.9712 304.902 63.9827 304.915 63.9876 304.922C64.2272 306.04 64.2637 307.657 64.2317 309.323C64.2158 310.151 64.1843 310.98 64.1545 311.75C64.125 312.516 64.0977 313.23 64.093 313.819V313.823L64.0979 341.846C64.0983 343.327 63.9704 347.138 64.0051 350.691C64.0227 352.482 64.0813 354.244 64.219 355.673C64.2878 356.387 64.377 357.03 64.4944 357.556C64.6075 358.064 64.76 358.531 64.9915 358.84L65.1155 359.006L65.3215 359.036L65.9797 359.13L66.218 359.163L66.3928 358.999C66.8245 358.592 67.1352 358.169 67.3342 357.678C67.5319 357.191 67.6064 356.667 67.6106 356.076C67.7324 339.079 67.2288 322.017 67.6252 305.06C71.8627 305.461 76.8904 305.547 81.1633 305.695L81.1604 340.879C81.1604 342.418 81.032 346.761 81.0754 350.847C81.0973 352.9 81.1623 354.916 81.3098 356.525C81.3835 357.328 81.4787 358.043 81.6028 358.615C81.6648 358.901 81.7363 359.161 81.8196 359.382C81.9007 359.598 82.0042 359.809 82.1448 359.973L82.343 360.205L82.6399 360.134L83.3469 359.966L83.5403 359.921L83.6497 359.754C84.2416 358.848 84.5853 358.1 84.7395 356.983C84.9192 355.683 84.9126 354.271 84.8635 352.883C84.8138 351.478 84.7219 350.118 84.721 348.844C84.7192 346.089 84.5709 335.463 84.551 325.431C84.5411 320.398 84.5629 315.491 84.6516 311.743C84.696 309.868 84.7569 308.289 84.8381 307.13C84.8788 306.551 84.9244 306.085 84.9739 305.743C84.9987 305.572 85.0236 305.44 85.0471 305.344C85.0737 305.237 85.0889 305.217 85.0764 305.237L85.0754 305.236C85.1182 305.168 85.1468 305.146 85.1555 305.139C85.1602 305.136 85.166 305.132 85.1838 305.128L86.011 305.416C86.1039 305.569 86.2136 305.839 86.3147 306.26C86.4349 306.761 86.5314 307.404 86.6067 308.155C86.7572 309.656 86.8186 311.541 86.8323 313.489C86.8459 315.435 86.8123 317.434 86.7747 319.159C86.7372 320.877 86.6948 322.337 86.6936 323.185L86.6467 359.518L86.6458 360.058L87.1838 360.018L92.3157 359.635L92.7786 359.601V359.137L92.7659 321.671C92.7658 320.339 92.642 316.321 92.6819 312.457C92.7017 310.534 92.7626 308.68 92.8977 307.261C92.9425 306.79 92.9958 306.375 93.0559 306.025C93.1524 306.473 93.2351 307.002 93.301 307.594C93.4487 308.922 93.5201 310.533 93.5501 312.193C93.6105 315.542 93.5017 318.954 93.5139 320.728L93.6653 348.434C93.6697 349.51 93.6111 351.788 93.636 353.928C93.6486 355.014 93.6823 356.095 93.7571 357.025C93.8306 357.939 93.9467 358.761 94.1448 359.296L94.1897 359.417L94.2874 359.501C94.4716 359.659 94.6127 359.765 94.719 359.842C89.4675 360.71 82.6211 361.236 75.8655 361.034C68.9766 360.828 62.2373 359.868 57.385 357.79C57.1429 349.65 57.2525 341.412 57.3596 333.156C57.468 324.796 57.5738 316.419 57.3069 308.132C57.2802 307.304 57.2438 306.233 57.3391 305.207C57.4205 304.33 57.5948 303.558 57.8997 303.008L58.0579 303.064Z" stroke="var(--stroke-0, white)"/>
<path id="Vector_43" d="M222.063 303.085C222.094 303.19 222.13 303.332 222.164 303.515C222.221 303.822 222.272 304.212 222.316 304.678C222.406 305.611 222.468 306.822 222.508 308.231C222.588 311.048 222.582 314.628 222.543 318.305C222.466 325.637 222.262 333.382 222.384 336.097C222.47 338.021 222.518 342.262 222.48 346.485C222.441 350.719 222.317 354.881 222.066 356.673L222.01 357.077L222.396 357.214C223.814 357.715 224.873 358.103 226.386 358.465L227.001 358.612L227.002 357.979C227.006 354.744 226.845 341.541 226.825 329.03C226.815 322.766 226.841 316.666 226.939 312.049C226.988 309.74 227.054 307.807 227.144 306.412C227.189 305.714 227.239 305.16 227.294 304.764C227.304 304.69 227.315 304.623 227.325 304.563C227.437 304.597 227.55 304.635 227.656 304.675C227.785 304.724 227.882 304.772 227.946 304.811C228.529 322.082 228.012 339.575 228.156 356.934C228.159 357.195 228.259 357.441 228.365 357.639C228.476 357.844 228.621 358.046 228.769 358.227C229.064 358.59 229.407 358.918 229.609 359.104L229.719 359.204L229.866 359.228L230.506 359.333L230.784 359.379L230.968 359.164C231.197 358.895 231.354 358.53 231.468 358.141C231.584 357.744 231.669 357.28 231.732 356.778C231.856 355.773 231.895 354.567 231.896 353.35C231.896 352.13 231.857 350.884 231.821 349.794C231.785 348.696 231.753 347.773 231.764 347.176C231.897 340.123 231.781 332.964 231.685 325.822C231.591 318.853 231.517 311.899 231.707 305.057C236.319 305.401 240.725 305.542 245.341 305.677C245.324 309.469 245.16 322.132 245.174 334.216C245.181 340.561 245.237 346.772 245.391 351.508C245.467 353.875 245.569 355.881 245.701 357.353C245.767 358.088 245.842 358.7 245.927 359.162C245.969 359.393 246.017 359.597 246.07 359.765C246.119 359.915 246.191 360.102 246.316 360.24L246.32 360.243C246.38 360.308 246.44 360.366 246.491 360.414C246.546 360.466 246.588 360.504 246.63 360.546L246.956 360.872L247.307 360.574C248.061 359.936 248.488 359.045 248.744 358.144C249.001 357.241 249.098 356.282 249.159 355.466V355.465C249.446 351.551 249.115 339.819 248.957 328.7C248.878 323.128 248.842 317.698 248.946 313.449C248.999 311.324 249.086 309.502 249.219 308.11C249.286 307.413 249.363 306.832 249.451 306.378C249.52 306.024 249.592 305.773 249.656 305.612C249.853 305.518 249.99 305.448 250.086 305.398C250.117 305.381 250.141 305.369 250.158 305.361C250.169 305.364 250.182 305.368 250.197 305.374C250.265 305.4 250.368 305.438 250.507 305.49C250.537 305.656 250.57 305.892 250.601 306.206C250.648 306.691 250.69 307.321 250.727 308.08C250.8 309.598 250.851 311.612 250.886 313.97C250.955 318.685 250.955 324.758 250.926 330.949C250.868 343.321 250.693 356.177 250.719 359.537L250.723 360.075L251.259 360.032L256.359 359.619L256.819 359.582L256.818 359.12L256.787 323.28C256.787 322.497 256.753 321.049 256.722 319.303C256.691 317.551 256.662 315.488 256.674 313.46C256.686 311.43 256.737 309.442 256.864 307.84C256.928 307.038 257.01 306.343 257.113 305.79C257.185 305.404 257.265 305.117 257.341 304.918L257.529 304.911C257.586 304.977 257.641 305.042 257.696 305.107C257.95 320.332 257.916 344.898 257.85 359.263L257.848 359.821L258.402 359.762C258.411 359.761 258.42 359.76 258.429 359.759C253.88 360.513 248.343 361.011 242.845 361.08C238.413 361.136 234.026 360.914 230.224 360.331C226.561 359.77 223.493 358.878 221.444 357.617C221.617 355.742 221.662 351.711 221.651 346.676C221.641 341.319 221.568 334.78 221.515 328.392C221.462 322.001 221.428 315.761 221.496 310.991C221.53 308.606 221.59 306.595 221.685 305.12C221.732 304.382 221.788 303.787 221.852 303.351C221.869 303.229 221.888 303.122 221.906 303.03L222.063 303.085Z" stroke="var(--stroke-0, white)"/>
<path id="Vector_44" d="M221.865 201.051C222.514 201.148 222.907 201.354 223.156 201.6C223.454 201.893 223.615 202.308 223.684 202.865C223.753 203.428 223.722 204.071 223.686 204.783C223.651 205.474 223.612 206.229 223.692 206.937C223.796 207.848 223.761 210.107 223.666 213.075C223.571 216.027 223.42 219.61 223.297 223.159C223.174 226.699 223.081 230.192 223.106 232.93C223.118 234.298 223.159 235.487 223.242 236.404C223.284 236.861 223.338 237.261 223.405 237.586C223.47 237.894 223.558 238.196 223.704 238.41L223.845 238.617L224.095 238.627L225.226 238.678L225.419 238.687L225.567 238.564C225.791 238.379 226.014 238.195 226.236 238.01L226.4 237.875L226.416 237.664C226.699 234.091 226.379 226.387 226.139 218.962C226.018 215.237 225.917 211.573 225.918 208.504C225.919 205.644 226.01 203.348 226.244 202.004C226.589 201.946 227.046 201.955 227.571 202.011C228.08 202.065 228.571 202.148 229.03 202.222C229.015 205.01 228.855 213.333 228.814 221.405C228.792 225.663 228.804 229.843 228.891 233.074C228.934 234.688 228.996 236.072 229.082 237.114C229.125 237.633 229.174 238.076 229.233 238.423C229.262 238.596 229.293 238.753 229.33 238.887C229.365 239.014 229.412 239.151 229.482 239.267L230.019 240.158L230.379 239.182C230.595 238.596 230.753 237.665 230.874 236.519C230.997 235.359 231.086 233.932 231.148 232.328C231.272 229.12 231.29 225.178 231.253 221.184C231.184 213.651 230.919 205.912 230.8 202.524C236.066 203.003 241.323 202.91 246.566 202.882L247.481 202.909H247.497L252.304 202.887C252.396 209.024 252.376 215.163 252.247 221.299C252.085 226.727 251.497 233.731 252.008 239.213V239.214C252.03 239.446 252.068 239.655 252.147 239.841C252.168 239.893 252.193 239.941 252.219 239.986L251.191 240.31L252.853 240.753L253.538 240.937L253.693 240.585C253.782 240.56 253.875 240.536 253.965 240.506C254.124 240.454 254.296 240.389 254.446 240.31C254.576 240.241 254.78 240.116 254.893 239.902L254.894 239.903C255.257 239.213 255.477 238.132 255.615 236.835C255.756 235.519 255.817 233.914 255.826 232.129C255.845 228.56 255.658 224.231 255.462 219.99C255.266 215.741 255.062 211.582 255.049 208.329C255.042 206.702 255.083 205.317 255.193 204.269C255.249 203.744 255.32 203.318 255.406 202.994C255.462 202.784 255.52 202.641 255.568 202.546C255.828 202.505 256.015 202.472 256.15 202.448C256.334 202.415 256.378 202.414 256.402 202.416C256.414 202.417 256.446 202.42 256.585 202.486C256.654 202.518 256.735 202.558 256.847 202.614C256.92 202.65 257.004 202.69 257.099 202.736C257.147 202.846 257.202 203.012 257.252 203.244C257.32 203.556 257.374 203.947 257.416 204.398C257.501 205.3 257.533 206.406 257.538 207.545C257.543 208.682 257.521 209.842 257.496 210.847C257.472 211.846 257.446 212.705 257.445 213.222V213.224L257.491 239.836L257.492 240.347L258.004 240.335C258.711 240.318 259.42 240.318 260.131 240.324C255.042 241.347 248.742 241.882 242.46 241.811C234.659 241.722 226.957 240.702 221.679 238.581C221.582 235.954 221.433 227.182 221.417 218.709C221.409 214.281 221.437 209.94 221.525 206.607C221.57 204.939 221.629 203.529 221.707 202.489C221.746 201.968 221.79 201.547 221.836 201.236C221.846 201.168 221.855 201.106 221.865 201.051Z" stroke="var(--stroke-0, white)"/>
<path id="Vector_45" d="M247.127 206.461C247.283 211.696 247.371 216.933 247.389 222.171L247.392 224.992V224.996C247.426 229.41 247.619 234.422 247.293 238.763C247.238 238.384 247.186 237.946 247.142 237.451C247.041 236.303 246.972 234.888 246.928 233.285C246.841 230.08 246.855 226.144 246.903 222.129C246.972 216.452 247.108 210.6 247.127 206.461Z" stroke="var(--stroke-0, white)"/>
<path id="Vector_46" d="M162.934 378.703C172.973 378.65 177.637 378.873 187.864 380.117L187.993 380.132L188.114 380.082C188.436 379.949 189.048 379.578 189.3 379.435L189.519 379.31L189.549 379.059L189.591 378.7C190.056 378.95 190.443 379.08 190.829 379.177C191.309 379.298 191.705 379.357 192.258 379.549L192.437 380.732L192.398 418.42V418.421C192.398 419.726 192.457 423.314 192.464 426.717C192.467 428.437 192.457 430.132 192.421 431.523C192.392 432.648 192.344 433.541 192.279 434.087C191.832 434.141 191.558 434.147 191.291 434.118C190.963 434.081 190.64 433.995 190.021 433.848C189.904 433.707 189.786 433.566 189.668 433.425C189.517 426.044 189.537 416.577 189.572 407.213C189.608 397.779 189.659 388.448 189.564 381.477L189.558 381.059L189.145 380.991L186.962 380.644C184.851 380.323 182.895 380.075 180.597 379.84L180.046 379.784V380.337L180.045 415.38L180.075 419.092C180.089 420.768 180.1 422.769 180.091 424.754C180.082 426.736 180.052 428.69 179.985 430.273C179.951 431.065 179.908 431.759 179.854 432.314C179.8 432.863 179.738 433.239 179.677 433.441C179.613 433.593 179.565 433.69 179.529 433.758C179.507 433.798 179.438 433.919 179.407 434.031C179.402 434.05 179.401 434.07 179.398 434.088C176.724 434.067 174.014 433.912 171.25 433.753C168.321 433.585 165.334 433.415 162.294 433.405C162.279 433.32 162.265 433.226 162.254 433.122C162.234 432.933 162.223 432.726 162.217 432.508H162.658C162.898 430.93 162.96 427.36 162.964 423.812C162.969 420.268 162.915 416.617 162.914 414.967L162.934 378.703Z" stroke="var(--stroke-0, white)"/>
<path id="Vector_47" d="M176.096 380.552C176.308 380.556 176.529 380.619 177.054 380.843C177.489 381.358 177.781 382.071 177.954 382.948C178.136 383.867 178.183 384.923 178.163 386.033C178.144 387.143 178.058 388.283 177.981 389.371C177.904 390.45 177.835 391.488 177.855 392.359C178.046 400.607 177.791 409.482 177.872 417.703C177.886 419.089 177.802 422.429 177.8 425.713C177.799 427.341 177.818 428.943 177.881 430.247C177.913 430.899 177.956 431.482 178.014 431.961C178.07 432.425 178.144 432.837 178.257 433.115L178.329 433.293L178.502 433.377L179.482 433.853C179.455 433.906 179.425 433.973 179.407 434.037C179.402 434.057 179.4 434.076 179.397 434.095C176.723 434.073 174.013 433.919 171.25 433.76C168.321 433.591 165.334 433.42 162.294 433.41C162.279 433.326 162.265 433.232 162.254 433.129C162.248 433.068 162.242 433.004 162.237 432.939C165.833 432.996 170.326 432.961 173.779 433.215L174.281 433.252L174.314 432.749C174.747 426.106 174.719 419.273 174.641 412.448C174.563 405.618 174.435 398.798 174.668 392.151C174.689 391.552 174.659 390.597 174.621 389.506C174.584 388.405 174.539 387.148 174.53 385.917C174.52 384.683 174.547 383.49 174.65 382.519C174.701 382.033 174.771 381.614 174.86 381.279C174.923 381.039 174.992 380.863 175.058 380.742C175.625 380.607 175.866 380.547 176.096 380.552Z" stroke="var(--stroke-0, white)"/>
<path id="Vector_48" d="M189.588 378.7C190.052 378.95 190.44 379.08 190.826 379.177C191.306 379.298 191.701 379.357 192.254 379.549L192.331 380.06C191.327 379.853 190.326 379.638 189.325 379.417L189.516 379.31L189.545 379.059L189.588 378.7Z" stroke="var(--stroke-0, white)"/>
<path id="Vector_49" d="M235.459 158.591L236.113 158.823L236.191 158.851L236.275 158.852L238.827 158.882H238.844L238.859 158.881C241.333 158.751 244.32 158.693 246.762 158.905L246.779 158.906H246.797C247.228 158.913 247.551 158.9 247.801 158.889C248.061 158.878 248.208 158.872 248.332 158.884C248.501 158.901 248.647 158.95 249.047 159.24C251.452 171.24 254.838 185.822 256.683 197.479L256.757 197.946L257.227 197.899C258.294 197.792 259.555 197.64 260.726 197.526C255.877 198.567 249.045 198.932 242.151 198.754C234.528 198.556 226.905 197.694 221.906 196.388C222.798 193.485 225.44 184.631 228.06 176.204C229.461 171.694 230.862 167.29 232 163.938C232.569 162.261 233.072 160.853 233.474 159.829C233.675 159.316 233.848 158.906 233.99 158.61C234.04 158.506 234.085 158.42 234.124 158.35L235.459 158.591Z" stroke="var(--stroke-0, white)"/>
<path id="Vector_50" d="M231.21 175.105C230.187 179.425 229.18 183.618 228.108 186.973C227.706 188.233 227.325 190.063 226.905 191.768C226.697 192.611 226.48 193.422 226.245 194.144C226.47 193.047 226.805 191.618 227.219 189.957C228.046 186.637 229.182 182.41 230.372 178.113C230.65 177.111 230.93 176.104 231.21 175.105Z" stroke="var(--stroke-0, white)"/>
<path id="Vector_51" d="M249.785 178.171C250.062 179.674 250.345 181.176 250.633 182.676L251.366 186.449C251.485 187.055 251.706 187.941 251.937 188.922C252.171 189.915 252.419 191.026 252.6 192.12C252.782 193.218 252.893 194.278 252.861 195.17C252.857 195.275 252.851 195.377 252.844 195.475C251.674 189.599 250.705 183.973 249.785 178.171Z" stroke="var(--stroke-0, white)"/>
<path id="Vector_52" d="M246.38 158.879L246.518 159.671C246.428 159.398 246.332 159.13 246.228 158.868C246.279 158.872 246.329 158.875 246.38 158.879Z" stroke="var(--stroke-0, white)"/>
<g id="Vector_53">
<mask id="path-55-inside-3_0_5" fill="white">
<path d="M244.889 166.451C245.365 167.18 247.236 195.379 247.279 198.258L246.815 197.878C245.731 195.178 244.749 170.589 244.889 166.451Z"/>
</mask>
<path d="M244.889 166.451L245.727 165.905L243.997 163.252L243.89 166.417L244.889 166.451ZM247.279 198.258L246.646 199.032L248.311 200.395L248.279 198.243L247.279 198.258ZM246.815 197.878L245.887 198.251L245.983 198.489L246.182 198.652L246.815 197.878ZM244.889 166.451L244.051 166.997C244.013 166.939 243.991 166.89 243.982 166.868C243.971 166.843 243.965 166.825 243.962 166.818C243.958 166.804 243.959 166.804 243.964 166.826C243.974 166.868 243.988 166.942 244.006 167.056C244.043 167.28 244.085 167.604 244.133 168.022C244.228 168.855 244.34 170.017 244.461 171.41C244.703 174.194 244.983 177.871 245.249 181.619C245.783 189.135 246.258 196.869 246.279 198.273L247.279 198.258L248.279 198.243C248.257 196.768 247.776 188.964 247.244 181.478C246.977 177.725 246.697 174.036 246.453 171.237C246.332 169.839 246.218 168.655 246.12 167.795C246.071 167.367 246.024 167.007 245.981 166.738C245.959 166.604 245.936 166.478 245.911 166.37C245.899 166.317 245.883 166.255 245.862 166.192C245.847 166.147 245.807 166.028 245.727 165.905L244.889 166.451ZM247.279 198.258L247.913 197.484L247.449 197.105L246.815 197.878L246.182 198.652L246.646 199.032L247.279 198.258ZM246.815 197.878L247.743 197.506C247.661 197.3 247.539 196.743 247.406 195.785C247.279 194.87 247.154 193.69 247.033 192.323C246.792 189.59 246.573 186.148 246.392 182.652C246.028 175.643 245.82 168.504 245.888 166.485L244.889 166.451L243.89 166.417C243.818 168.536 244.031 175.761 244.394 182.756C244.576 186.262 244.797 189.732 245.041 192.498C245.163 193.881 245.291 195.098 245.425 196.06C245.553 196.98 245.699 197.781 245.887 198.251L246.815 197.878Z" fill="var(--stroke-0, white)" mask="url(#path-55-inside-3_0_5)"/>
</g>
<g id="Vector_54">
<mask id="path-57-inside-4_0_5" fill="white">
<path d="M234.622 176.012L234.855 176.235C234.261 179.56 231.905 195.986 230.807 197.8C230.124 195.907 233.737 178.573 234.622 176.012Z"/>
</mask>
<path d="M234.622 176.012L235.312 175.289L234.185 174.213L233.677 175.686L234.622 176.012ZM234.855 176.235L235.84 176.411L235.934 175.883L235.546 175.512L234.855 176.235ZM230.807 197.8L229.867 198.14L230.578 200.11L231.663 198.318L230.807 197.8ZM234.622 176.012L233.931 176.735L234.165 176.958L234.855 176.235L235.546 175.512L235.312 175.289L234.622 176.012ZM234.855 176.235L233.871 176.059C233.575 177.714 232.827 182.717 232.034 187.418C231.634 189.789 231.221 192.101 230.84 193.929C230.65 194.844 230.47 195.626 230.307 196.227C230.132 196.873 230.005 197.194 229.952 197.283L230.807 197.8L231.663 198.318C231.883 197.953 232.071 197.364 232.237 196.751C232.415 196.094 232.604 195.269 232.798 194.337C233.187 192.471 233.605 190.129 234.006 187.751C234.815 182.954 235.541 178.081 235.84 176.411L234.855 176.235ZM230.807 197.8L231.748 197.461C231.758 197.488 231.736 197.433 231.727 197.225C231.718 197.039 231.721 196.79 231.737 196.479C231.77 195.856 231.855 195.043 231.982 194.089C232.235 192.184 232.646 189.78 233.109 187.343C234.041 182.435 235.153 177.537 235.567 176.339L234.622 176.012L233.677 175.686C233.206 177.048 232.069 182.097 231.144 186.97C230.678 189.423 230.259 191.868 229.999 193.826C229.869 194.803 229.777 195.674 229.74 196.372C229.721 196.721 229.716 197.041 229.729 197.319C229.741 197.574 229.771 197.876 229.867 198.14L230.807 197.8Z" fill="var(--stroke-0, white)" mask="url(#path-57-inside-4_0_5)"/>
</g>
<path id="Vector_55" d="M71.9833 158.724L72.0145 158.73L72.0467 158.732C75.3609 158.966 78.3675 159.258 81.7518 159.032L82.5751 159.064L82.5975 159.065L82.621 159.064C83.0158 159.042 83.3113 159.011 83.5419 158.985C83.7803 158.959 83.919 158.945 84.0409 158.947C84.2099 158.95 84.3669 158.985 84.7635 159.199C85.3157 161.11 85.7095 163.033 86.0829 165.011C87.1084 170.441 88.2325 175.859 89.3553 181.272C90.4784 186.685 91.6002 192.093 92.6239 197.51L92.7098 197.965L93.1698 197.914L96.5155 197.548C91.3462 198.518 85.0325 198.889 78.6844 198.772C71.0786 198.633 63.4676 197.793 57.7772 196.48C58.4629 193.941 61.1031 185.245 63.7665 176.756C65.2031 172.177 66.6435 167.667 67.7811 164.233C68.35 162.517 68.8417 161.072 69.2196 160.022C69.4087 159.497 69.5677 159.076 69.6922 158.771C69.7376 158.659 69.7783 158.567 69.8124 158.491L70.7694 158.479L71.9833 158.724Z" stroke="var(--stroke-0, white)"/>
<path id="Vector_56" d="M66.3678 178.221C65.7754 180.594 65.1691 182.913 64.5202 185.114C63.4499 188.746 62.9361 191.68 61.8688 194.811C62.1918 193.344 62.6013 191.685 63.0729 189.897C64.019 186.311 65.1985 182.241 66.3678 178.221ZM71.4372 158.613C71.3916 158.758 71.3465 158.903 71.3014 159.048C71.3159 158.887 71.3246 158.735 71.3298 158.592L71.4372 158.613Z" stroke="var(--stroke-0, white)"/>
<path id="Vector_57" d="M85.457 177.125C85.8369 178.935 86.2341 180.807 86.6113 182.653C87.2449 185.754 87.8233 188.795 88.1767 191.389C88.3117 192.38 88.4116 193.296 88.4706 194.118C88.3623 193.612 88.248 193.057 88.1298 192.459C87.6013 189.787 86.9898 186.304 86.3876 182.734C86.0705 180.854 85.7553 178.948 85.457 177.125Z" stroke="var(--stroke-0, white)"/>
<g id="Vector_58">
<mask id="path-62-inside-5_0_5" fill="white">
<path d="M81.748 158.531L82.5922 158.563C83.2094 161.386 83.6832 163.598 84.0598 166.48L83.1478 166.231C82.8787 165.374 82.2654 160.58 81.748 158.531Z"/>
</mask>
<path d="M81.748 158.531L81.7863 157.532L80.4513 157.481L80.7784 158.776L81.748 158.531ZM82.5922 158.563L83.5691 158.35L83.4037 157.594L82.6305 157.564L82.5922 158.563ZM84.0598 166.48L83.7959 167.445L85.2462 167.842L85.0514 166.351L84.0598 166.48ZM83.1478 166.231L82.1937 166.531L82.3573 167.051L82.8839 167.195L83.1478 166.231ZM81.748 158.531L81.7097 159.53L82.5538 159.563L82.5922 158.563L82.6305 157.564L81.7863 157.532L81.748 158.531ZM82.5922 158.563L81.6152 158.777C82.2321 161.598 82.6976 163.773 83.0683 166.61L84.0598 166.48L85.0514 166.351C84.6687 163.422 84.1867 161.174 83.5691 158.35L82.5922 158.563ZM84.0598 166.48L84.3237 165.516L83.4117 165.266L83.1478 166.231L82.8839 167.195L83.7959 167.445L84.0598 166.48ZM83.1478 166.231L84.1018 165.931C84.0591 165.795 83.9812 165.41 83.8739 164.785C83.7716 164.19 83.6548 163.454 83.5283 162.669C83.2793 161.124 82.9894 159.363 82.7175 158.286L81.748 158.531L80.7784 158.776C81.0239 159.748 81.2995 161.409 81.5538 162.987C81.6789 163.764 81.7982 164.515 81.9028 165.124C82.0023 165.703 82.1019 166.238 82.1937 166.531L83.1478 166.231Z" fill="var(--stroke-0, white)" mask="url(#path-62-inside-5_0_5)"/>
</g>
<path id="Vector_59" d="M81.8509 184.565C82.0888 187.358 82.3104 190.146 82.4798 192.487C82.219 190.294 82.002 187.679 81.8275 185.014C81.7764 184.235 81.7287 183.452 81.6849 182.675C81.7396 183.302 81.7971 183.933 81.8509 184.565Z" stroke="var(--stroke-0, white)"/>
<path id="Vector_60" d="M68.283 188.457C68.023 190.102 67.7584 191.683 67.4773 193.128C67.7134 191.724 67.9887 190.121 68.283 188.457Z" stroke="var(--stroke-0, white)"/>
<g id="Vector_61">
<mask id="path-66-inside-6_0_5" fill="white">
<path d="M80.693 165.674L81.1566 166.147C81.6331 167.499 81.3664 168.672 81.2264 170.13C80.3502 168.887 80.6259 167.204 80.693 165.674Z"/>
</mask>
<path d="M80.693 165.674L81.4071 164.974L79.7948 163.329L79.6939 165.63L80.693 165.674ZM81.1566 166.147L82.0997 165.815L82.026 165.605L81.8707 165.447L81.1566 166.147ZM81.2264 170.13L80.409 170.706L81.9639 172.912L82.2218 170.226L81.2264 170.13ZM80.693 165.674L79.9789 166.374L80.4425 166.847L81.1566 166.147L81.8707 165.447L81.4071 164.974L80.693 165.674ZM81.1566 166.147L80.2135 166.479C80.5956 167.564 80.3853 168.427 80.231 170.034L81.2264 170.13L82.2218 170.226C82.3474 168.918 82.6706 167.434 82.0997 165.815L81.1566 166.147ZM81.2264 170.13L82.0437 169.554C81.7619 169.154 81.6334 168.642 81.6051 167.968C81.5752 167.256 81.6546 166.572 81.692 165.718L80.693 165.674L79.6939 165.63C79.6643 166.307 79.5723 167.229 79.6068 168.052C79.643 168.912 79.8146 169.863 80.409 170.706L81.2264 170.13Z" fill="var(--stroke-0, white)" mask="url(#path-66-inside-6_0_5)"/>
</g>
<path id="Vector_62" d="M57.449 362.601C57.5345 362.625 57.5949 362.647 57.6531 362.674C57.7624 362.726 57.865 362.801 58.1296 363.019C58.326 364.784 58.3028 366.802 58.2644 368.607C58.0952 376.57 58.1491 384.586 58.1736 392.588C58.1981 400.593 58.1928 408.587 57.905 416.52L57.8914 416.9L58.2537 417.014L62.573 418.383L63.2439 418.596L63.2234 417.892C62.9272 407.577 63.2521 396.582 63.1111 386.155C63.0738 383.393 62.9882 379.011 63.0056 374.714C63.022 370.664 63.1294 366.729 63.448 364.305C63.7114 365.077 63.925 366.233 64.0789 367.733C64.2673 369.569 64.3669 371.854 64.407 374.437C64.4872 379.602 64.328 385.917 64.1736 392.143C64.0193 398.362 63.8692 404.494 63.9695 409.273C64.0196 411.66 64.1326 413.725 64.3416 415.301C64.4459 416.088 64.5762 416.768 64.74 417.311C64.8985 417.836 65.1087 418.306 65.4177 418.6L65.5828 418.756L65.8093 418.736L66.5613 418.665L66.8201 418.641L66.949 418.416C67.1326 418.095 67.253 417.605 67.3435 417.058C67.4372 416.491 67.5087 415.795 67.5623 415.019C67.6694 413.464 67.7083 411.549 67.7136 409.613C67.7189 407.684 67.6899 405.716 67.658 404.058L67.5867 400.365C67.5647 388.629 67.3782 376.446 67.6589 364.751C72.332 365.097 76.4697 365.352 81.1589 365.427L81.115 413.43C78.3403 415.781 75.5599 418.236 72.8142 420.616C67.6079 420.138 62.1299 419.567 57.4168 417.528C57.3355 414.958 57.3181 412.146 57.3796 409.586C57.5688 401.718 57.4193 393.719 57.3093 385.742C57.2022 377.971 57.1339 370.218 57.449 362.601Z" stroke="var(--stroke-0, white)"/>
<path id="Vector_63" d="M0.53418 524.684C35.3727 524.1 71.7966 524.634 106.793 524.67C106.366 527.466 106.219 529.752 106.047 532.562C105.999 532.571 105.945 532.582 105.884 532.592C105.609 532.637 105.229 532.679 104.75 532.717C103.795 532.794 102.484 532.855 100.921 532.903C97.7971 532.999 93.6928 533.042 89.4727 533.056C81.0262 533.084 72.1549 532.998 69.7412 532.998L0.548828 533.009C0.460303 530.335 0.518472 527.407 0.53418 524.684Z" stroke="var(--stroke-0, white)"/>
<path id="Vector_64" d="M11.5702 526.744C21.7755 526.078 31.8889 526.394 42.29 526.394H42.2919C57.0531 526.347 71.8143 526.37 86.5751 526.463C86.4305 526.538 86.2897 526.62 86.1542 526.711C71.5487 527.24 55.0108 526.594 40.1278 526.777C33.1781 526.863 20.4919 527.104 11.5702 526.744Z" stroke="var(--stroke-0, white)"/>
<path id="Vector_65" d="M90.2139 526.483C94.8734 526.253 99.9847 526.309 104.73 526.338L104.517 531.369L94.044 531.38C94.7224 530.206 95.4069 529.024 96.0088 527.783L96.3428 527.095L95.5782 527.065L88.6983 526.798C89.1956 526.686 89.6943 526.595 90.2139 526.483Z" stroke="var(--stroke-0, white)"/>
<path id="Vector_66" d="M178.93 366.454L178.785 337.774C178.766 333.775 178.844 329.662 178.691 325.659C178.656 324.754 178.405 324.025 177.818 323.603C177.242 323.189 176.487 323.178 175.707 323.341L175.578 323.367L175.479 323.454C174.937 323.929 174.482 324.383 174.172 324.936C173.855 325.501 173.709 326.131 173.71 326.929C173.719 331.928 173.742 336.989 173.735 341.982L173.636 376.313L162.888 376.08C162.881 358.861 162.449 339.678 162.93 322.664C171.813 322.644 183.724 322.946 192.345 325.023L192.425 362.235C192.426 363.573 192.471 367.228 192.465 370.877C192.463 372.694 192.447 374.494 192.408 375.975C192.38 377.039 192.338 377.917 192.285 378.516C191.799 378.369 191.407 378.299 191.073 378.215C190.665 378.112 190.258 377.972 189.679 377.6C189.229 360.518 189.683 342.614 189.568 325.426L189.565 324.994L189.137 324.935L187.059 324.632C184.908 324.312 182.594 323.963 180.598 323.778L180.056 323.729L180.052 324.273C180.038 326.794 180.117 339.528 180.119 351.829C180.119 357.983 180.1 364.032 180.041 368.649C180.011 370.958 179.97 372.906 179.918 374.329C179.891 375.041 179.861 375.617 179.829 376.039C179.813 376.239 179.797 376.4 179.781 376.522C179.667 376.562 179.582 376.592 179.523 376.613C179.516 376.616 179.509 376.617 179.503 376.619C179.492 376.613 179.477 376.606 179.46 376.597C179.383 376.554 179.275 376.492 179.124 376.413C178.845 375.311 178.782 373.595 178.801 371.76C178.811 370.796 178.843 369.819 178.873 368.907C178.902 367.999 178.93 367.151 178.93 366.457V366.454Z" stroke="var(--stroke-0, white)"/>
<path id="Vector_67" d="M162.927 267.468C165.677 267.454 171.938 267.565 177.989 267.97C181.212 268.186 184.366 268.484 186.892 268.888C188.156 269.09 189.252 269.318 190.117 269.571C190.882 269.794 191.416 270.025 191.73 270.243C192.1 272.322 192.325 275.875 192.445 280.242C192.568 284.728 192.582 290.037 192.543 295.412C192.466 306.192 192.178 317.135 192.128 322.369C192.128 322.384 192.126 322.396 192.125 322.404C192.124 322.405 192.122 322.406 192.121 322.408C192.083 322.431 192.025 322.458 191.916 322.503C191.86 322.527 191.792 322.557 191.717 322.589C191.179 322.43 190.613 322.134 190.182 321.737C189.71 321.301 189.434 320.785 189.45 320.225C189.588 315.283 189.579 310.355 189.581 305.422V305.421L189.548 270.267V269.824L189.108 269.771C186.269 269.43 183.436 269.041 180.61 268.603L180.05 268.516L180.034 269.082C179.689 280.895 180.003 294.765 180.01 306.697C180.006 307.579 180.055 308.814 180.101 310.178C180.148 311.549 180.192 313.064 180.182 314.53C180.172 315.998 180.106 317.401 179.937 318.55C179.852 319.125 179.744 319.624 179.608 320.031C179.511 320.321 179.403 320.546 179.294 320.716L179.197 320.708C179.111 320.484 179.026 320.177 178.947 319.78C178.837 319.228 178.745 318.538 178.669 317.725C178.518 316.099 178.436 314.013 178.399 311.616C178.324 306.821 178.429 300.821 178.525 294.839C178.62 288.863 178.705 282.905 178.584 278.213C178.524 275.868 178.413 273.828 178.224 272.253C178.13 271.467 178.015 270.785 177.873 270.235C177.736 269.7 177.56 269.23 177.311 268.917L177.209 268.789L177.052 268.746L176.395 268.553C176.257 268.512 176.105 268.467 175.934 268.469C175.77 268.471 175.617 268.516 175.481 268.555C175.33 268.599 175.129 268.66 174.805 268.741L174.558 268.802L174.462 269.038C174.367 269.275 174.299 269.662 174.244 270.116C174.186 270.59 174.134 271.199 174.088 271.919C173.996 273.362 173.924 275.278 173.869 277.514C173.757 281.988 173.71 287.766 173.697 293.653C173.672 304.823 173.768 316.414 173.781 320.243C170.576 319.973 166.16 319.982 162.899 319.933L162.927 267.468Z" stroke="var(--stroke-0, white)"/>
<path id="Vector_68" d="M322.435 524.7L322.438 532.983L216.627 532.964C216.201 530.012 215.906 527.669 215.699 524.693L322.435 524.7Z" stroke="var(--stroke-0, white)"/>
<path id="Vector_69" d="M256.822 526.408L256.644 526.634L256.922 526.828C255.391 526.828 253.904 526.821 252.726 526.831L252.151 526.835L252.235 527.404L252.824 531.379L218.39 531.372C218.149 529.679 217.978 528.008 217.803 526.295L256.822 526.408Z" stroke="var(--stroke-0, white)"/>
<path id="Vector_70" d="M290.761 526.392C298.345 526.395 304.619 526.259 311.577 526.706C303.844 527.013 294.269 526.782 287.598 526.785C280.976 526.789 269.186 527.119 263.104 526.68H263.103C262.248 526.571 261.017 526.569 259.973 526.518C259.509 526.495 259.074 526.46 258.696 526.408L290.761 526.393V526.392Z" stroke="var(--stroke-0, white)"/>
<path id="Vector_71" d="M169.161 187.91C170.992 188.475 172.869 189.035 174.485 189.865C175.899 192.51 177.803 198.226 179.573 204.191C181.204 209.691 182.706 215.346 183.587 218.862C183.381 218.772 183.2 218.69 183.038 218.611C182.677 218.434 182.446 218.286 182.265 218.113C181.898 217.762 181.661 217.245 181.163 215.908C180.323 213.656 179.685 211.58 178.995 209.483C178.306 207.391 177.571 205.293 176.547 203.035L175.597 203.313C175.705 204.065 175.894 205.155 176.101 206.385C176.31 207.621 176.539 209.008 176.73 210.368C176.921 211.729 177.073 213.054 177.129 214.169C177.178 215.135 177.149 215.883 177.044 216.356C176.708 216.456 176.685 216.444 176.646 216.432C176.591 216.417 176.518 216.382 176.326 216.283C176.147 216.191 175.903 216.064 175.552 215.907L175.468 215.869L175.377 215.864L174.202 215.797L174.171 215.795L174.14 215.798C173.295 215.854 171.517 215.752 169.641 215.622C167.793 215.494 165.87 215.34 164.8 215.305C155.269 214.995 148.29 215.442 139.426 218.762C140.35 215.109 141.807 209.574 143.402 204.175C145.116 198.374 146.974 192.781 148.48 189.834C150.124 189.038 151.963 188.511 153.794 187.969C153.772 190.504 153.948 192.3 154.388 193.55C154.631 194.24 154.96 194.785 155.397 195.196C155.836 195.609 156.356 195.863 156.939 196.011C158.07 196.299 159.513 196.202 161.192 196.082C162.901 195.959 164.937 195.801 167.364 195.912L167.594 195.923L167.752 195.754L168.737 194.7L168.847 194.582L168.867 194.422C169.169 192.036 169.168 190.191 169.161 187.91Z" stroke="var(--stroke-0, white)"/>
<path id="Vector_72" d="M173.977 209.47C174.095 210.393 174.207 211.294 174.311 212.146C174.484 213.551 174.641 214.825 174.774 215.835L174.631 215.827C174.566 215.141 174.449 213.971 174.3 212.543L173.977 209.47Z" stroke="var(--stroke-0, white)"/>
<path id="Vector_73" d="M161.404 240.994C165.379 241.054 169.366 241.894 174.374 243.28C174.441 250.017 174.438 256.754 174.365 263.49C161.496 262.774 148.59 263.112 135.776 264.502C135.78 263.151 135.764 261.6 135.837 260.06C135.915 258.409 136.098 256.832 136.505 255.604L136.589 255.362C136.729 254.983 136.849 254.889 136.982 254.82C137.076 254.772 137.195 254.731 137.383 254.672C137.552 254.619 137.767 254.553 138.015 254.463C140.289 254.022 143.412 253.508 145.625 252.874L145.905 252.794L145.974 252.511C146.73 249.37 147.427 246.537 148.346 243.46C153.39 241.665 157.405 240.934 161.404 240.994Z" stroke="var(--stroke-0, white)"/>
<path id="Vector_74" d="M159.977 256.795L159.928 261.022L155.943 261.058L155.936 256.784L159.977 256.795Z" stroke="var(--stroke-0, white)"/>
<path id="Vector_75" d="M167.072 256.792L167.015 260.967L163.027 261.014L163.032 256.784L167.072 256.792Z" stroke="var(--stroke-0, white)"/>
<path id="Vector_76" d="M153.556 219.805C157.298 219.456 163.633 219.24 169.724 219.764C172.769 220.026 175.739 220.472 178.288 221.172C180.848 221.875 182.932 222.821 184.25 224.05C184.389 224.179 184.561 224.421 184.757 224.807C184.949 225.185 185.149 225.67 185.353 226.253C185.76 227.418 186.174 228.941 186.584 230.719C187.404 234.272 188.2 238.803 188.904 243.443C190.272 252.449 191.287 261.818 191.467 265.193L191.26 265.315C190.991 265.26 190.535 265.159 190.107 265.024C189.83 264.937 189.587 264.844 189.414 264.753C189.344 264.716 189.299 264.683 189.271 264.661C188.205 259.361 187.749 251.678 187.003 244.028C186.258 236.394 185.222 228.783 182.954 223.85L182.916 223.767L182.852 223.703L182.614 223.483C182.052 222.999 181.434 222.707 180.795 222.493C180.092 222.258 179.292 222.101 178.556 221.909L177.833 221.721L177.935 222.461C178.108 223.72 178.527 225.909 178.755 228.065C178.868 229.134 178.93 230.16 178.889 231.014C178.855 231.705 178.754 232.215 178.609 232.543C177.944 232.432 177.521 232.077 177.219 231.539C176.851 230.883 176.663 229.948 176.553 228.815C176.442 227.672 176.42 226.469 176.33 225.199C176.243 223.966 176.093 222.72 175.719 221.651L175.435 220.841L174.87 221.487C174.662 221.726 174.527 222.053 174.433 222.389C174.335 222.734 174.267 223.14 174.218 223.577C174.121 224.452 174.099 225.505 174.115 226.562C174.14 228.19 174.255 229.87 174.333 230.982C162.014 225.657 150.104 230.316 138.97 234.503L138.471 234.34L138.232 234.961L137.831 236L138.056 235.915C136.822 240.846 135.712 247.267 134.778 251.996L134.75 252.141L134.805 252.277L135.397 253.769L135.491 254.007L135.739 254.069C135.898 254.109 136.042 254.144 136.178 254.176C135.997 254.34 135.852 254.549 135.731 254.824L135.652 255.019C135.129 256.43 134.923 258.235 134.839 260.016C134.768 261.506 134.78 263.027 134.778 264.322L134.281 264.122L133.937 263.983L133.705 264.273C133.463 264.575 133.297 264.796 133.131 264.99C132.97 265.179 132.854 265.283 132.753 265.341C132.629 265.413 132.442 265.467 131.942 265.278C131.822 264.892 131.742 264.567 131.699 264.164C131.57 262.945 131.769 260.051 132.202 256.277C132.633 252.529 133.288 247.974 134.044 243.478C134.801 238.98 135.658 234.547 136.494 231.041C136.912 229.288 137.323 227.774 137.711 226.603C137.905 226.017 138.092 225.523 138.268 225.132C138.447 224.733 138.603 224.469 138.729 224.319C140.131 222.647 142.695 221.604 145.548 220.937C148.379 220.276 151.379 220.008 153.556 219.805Z" stroke="var(--stroke-0, white)"/>
<path id="Vector_77" d="M134.79 261.79C134.779 262.676 134.78 263.536 134.779 264.315L134.611 264.248C134.647 263.422 134.71 262.605 134.79 261.79ZM135.74 254.063C135.898 254.103 136.043 254.137 136.178 254.17C135.997 254.334 135.853 254.543 135.732 254.817L135.653 255.012C135.615 255.114 135.579 255.217 135.544 255.323C135.587 254.899 135.625 254.472 135.659 254.043L135.74 254.063Z" stroke="var(--stroke-0, white)"/>
<path id="Vector_78" d="M231.899 364.763C236.532 365.097 240.686 365.363 245.337 365.419L245.242 416.233C244.675 415.813 243.954 415.238 243.134 414.553C241.89 413.512 240.437 412.244 238.978 410.947C236.171 408.452 233.354 405.864 231.944 404.589C231.926 391.332 231.575 377.982 231.899 364.763Z" stroke="var(--stroke-0, white)"/>
<path id="Vector_79" d="M114.771 163.551C115.024 163.633 115.258 163.713 115.482 163.797C115.882 163.948 116.202 164.101 116.454 164.287C116.698 164.468 116.882 164.683 117.009 164.969C117.139 165.261 117.221 165.654 117.219 166.204C117.117 200.258 117.036 234.312 117.018 268.366V268.367L117.013 318.529C117.013 332.547 117.783 344.135 115.059 357.716C115.001 356.29 114.948 354.387 114.901 352.064C114.796 346.885 114.719 339.632 114.663 330.958C114.55 313.611 114.524 290.587 114.539 267.119C114.57 221.343 114.757 173.786 114.771 163.551Z" stroke="var(--stroke-0, white)"/>
<path id="Vector_80" d="M197.115 320.681C198.288 328.325 200.189 340.556 202.488 352.618C204.853 365.026 207.649 377.309 210.519 384.226C213.671 391.822 221.822 400.795 230.715 409.214C239.622 417.648 249.366 425.607 255.755 431.147L290.166 460.992C293.52 463.908 298.364 467.946 302.876 472.212C307.398 476.488 311.524 480.937 313.47 484.656C314.132 485.924 314.982 488.526 315.892 491.859C316.798 495.174 317.752 499.165 318.628 503.175C319.727 508.21 320.699 513.249 321.303 517.012C320.005 512.564 318.854 507.499 317.621 502.498C315.913 495.574 314.044 488.763 311.392 484.055C309.255 480.26 304.308 475.279 299.044 470.495C293.767 465.7 288.088 461.03 284.462 457.886L253.334 430.871L250.467 428.407C243.657 422.594 236.062 416.327 229.012 409.568C220.957 401.846 213.66 393.522 209.121 384.58H209.12C207.474 381.339 205.989 375.372 204.728 369.174C203.47 362.989 202.454 356.674 201.719 352.725C199.931 343.134 196.878 330.308 196.826 320.824L197.115 320.681Z" stroke="var(--stroke-0, white)"/>
<path id="Vector_81" d="M207.678 163.668C207.747 163.875 207.823 164.191 207.889 164.63C207.984 165.251 208.057 166.047 208.113 166.97C208.225 168.815 208.266 171.136 208.27 173.516C208.274 175.894 208.242 178.325 208.209 180.391C208.175 182.452 208.141 184.159 208.141 185.076L208.16 231.9L208.13 356.128L207.647 356.287C207.134 353.43 206.811 348.05 206.622 341.287C206.42 334.084 206.371 325.362 206.394 316.563C206.441 298.985 206.778 281.048 206.765 274.412C206.755 268.919 206.513 241.998 206.435 216.116C206.396 203.169 206.399 190.474 206.491 180.831C206.537 176.009 206.607 171.953 206.704 169.011C206.753 167.539 206.808 166.351 206.871 165.487C206.902 165.055 206.935 164.71 206.969 164.453C206.987 164.325 207.004 164.224 207.019 164.148C207.022 164.135 207.026 164.124 207.028 164.113L207.523 163.657L207.678 163.668Z" stroke="var(--stroke-0, white)"/>
<path id="Vector_82" d="M172.676 11.4776C172.897 11.6104 173.144 11.7928 173.411 12.0215C173.846 12.3936 174.303 12.8602 174.752 13.3614C175.651 14.3643 176.489 15.4725 177.019 16.169C204.42 52.1884 207.236 100.221 208.193 143.982C208.225 145.479 208.355 148.969 208.33 152.384C208.318 154.091 208.266 155.768 208.146 157.158C208.086 157.854 208.008 158.47 207.912 158.979C207.853 159.295 207.785 159.557 207.717 159.765L207.013 159.656C206.928 159.55 206.843 159.445 206.758 159.339C206.664 153.039 206.704 142.86 206.513 136.46L206.471 135.222C205.887 115.352 203.744 95.559 200.064 76.0244V76.0225L199.772 74.542C196.77 59.6286 191.201 41.6265 183.546 28.3662L182.774 27.0557C181.281 24.5286 179.68 22.0682 177.974 19.6797L177.972 19.6768L177.401 18.9043C176.726 18.0023 175.778 16.7536 174.892 15.5528C174.296 14.7446 173.722 13.9502 173.261 13.2764C172.884 12.7251 172.6 12.2768 172.437 11.9727L172.676 11.4776Z" stroke="var(--stroke-0, white)"/>
<path id="Vector_83" d="M116.813 369.499C116.487 372.723 115.736 376.287 114.685 379.77C113.113 384.98 110.892 389.954 108.497 393.292C99.9985 405.136 86.5704 415.945 75.0859 425.913L72.8174 427.895L30.9561 464.79C24.7508 470.26 15.9053 477.514 10.9746 484.138L10.9658 484.15L10.958 484.162C8.24296 488.28 6.79936 493.074 5.73145 497.953C5.19748 500.392 4.75437 502.869 4.29688 505.295C3.83845 507.725 3.36413 510.109 2.76563 512.389C2.38714 513.831 2.15179 515.283 1.87012 516.632C1.77485 517.089 1.67145 517.538 1.55664 517.981C1.5599 517.95 1.563 517.919 1.56641 517.888C1.70647 516.612 1.97156 515.088 2.28223 513.531C2.59253 511.976 2.94634 510.399 3.26172 509.017C3.5759 507.641 3.85514 506.449 4.01074 505.683C4.56221 502.968 5.25805 498.86 6.1543 494.829C7.05259 490.788 8.12877 486.946 9.39746 484.792L9.39649 484.791C11.9302 480.49 15.771 476.278 19.9473 472.305C24.1241 468.332 28.6033 464.629 32.417 461.325V461.324L66.5479 431.744C74.0307 425.259 82.5114 418.398 90.3945 411.064C98.2832 403.725 105.615 395.873 110.828 387.364C112.844 384.073 114.103 380.306 115.117 376.477C115.625 374.562 116.073 372.62 116.524 370.713C116.621 370.307 116.717 369.902 116.813 369.499Z" stroke="var(--stroke-0, white)"/>
<path id="Vector_84" d="M257.765 364.688C257.849 365.303 257.902 366.353 257.929 367.67C257.959 369.091 257.959 370.788 257.947 372.516C257.922 375.957 257.846 379.537 257.85 381.196V381.198C257.924 393.781 257.912 406.368 257.803 418.951L257.8 419.25L258.062 419.394L258.387 419.571L256.656 419.866C255.412 420.071 253.993 420.355 252.617 420.41C251.322 420.462 250.158 420.306 249.282 419.756C249.216 419.232 249.156 418.174 249.105 416.666C249.047 414.95 249.002 412.696 248.969 410.087C248.903 404.869 248.886 398.241 248.909 391.685C248.931 385.128 248.994 378.643 249.089 373.714C249.137 371.249 249.193 369.175 249.255 367.676C249.287 366.926 249.32 366.324 249.354 365.891C249.371 365.673 249.387 365.504 249.404 365.382C249.418 365.28 249.428 365.24 249.428 365.235C249.526 365.016 249.571 364.945 249.585 364.927C249.594 364.923 249.619 364.913 249.675 364.895C249.703 364.887 249.736 364.875 249.774 364.863L250.295 365.303C250.364 365.468 250.441 365.749 250.508 366.163C250.584 366.63 250.643 367.215 250.688 367.887C250.779 369.229 250.812 370.887 250.815 372.581C250.818 374.273 250.791 375.993 250.762 377.457C250.734 378.916 250.705 380.131 250.703 380.8V380.802L250.683 419.146V419.65L251.187 419.646L256.49 419.603L257.001 419.6L256.986 419.09C256.566 404.063 256.887 380.598 256.846 364.781C256.892 364.715 256.938 364.65 256.984 364.584C257.014 364.541 257.044 364.497 257.074 364.454L257.506 364.429L257.765 364.688Z" stroke="var(--stroke-0, white)"/>
<path id="Vector_85" d="M78.81 131.523C78.864 131.568 78.9171 131.614 78.9662 131.66C79.1344 131.821 79.1921 131.926 79.2016 131.967C80.7323 138.605 82.4754 147.56 83.7182 154.107L83.7631 154.339L83.9701 154.452C84.1144 154.531 84.235 154.59 84.3344 154.639C83.5262 154.72 82.5024 154.759 81.435 154.774C79.8256 154.796 78.2119 154.767 77.181 154.77H77.1781C74.5489 154.793 73.3022 154.628 70.8392 154.237C71.5731 151.766 72.9307 146.886 74.4418 142.177C75.2567 139.638 76.1104 137.168 76.9262 135.183C77.3342 134.19 77.7296 133.327 78.1019 132.64C78.3603 132.164 78.5981 131.791 78.81 131.523Z" stroke="var(--stroke-0, white)"/>
<g id="Vector_86">
<mask id="path-92-inside-7_0_5" fill="white">
<path d="M74.0907 148.465C74.6503 150.322 73.4462 152.917 72.5505 154.545C72.2561 153.035 73.5296 149.964 74.0907 148.465Z"/>
</mask>
<path d="M74.0907 148.465L75.0482 148.177L74.1933 145.34L73.1542 148.115L74.0907 148.465ZM72.5505 154.545L71.569 154.737L72.0967 157.445L73.4267 155.027L72.5505 154.545ZM74.0907 148.465L73.1332 148.754C73.3258 149.393 73.2353 150.27 72.9129 151.289C72.5986 152.283 72.1093 153.273 71.6743 154.063L72.5505 154.545L73.4267 155.027C73.8874 154.19 74.4479 153.068 74.8197 151.893C75.1834 150.743 75.4152 149.394 75.0482 148.177L74.0907 148.465ZM72.5505 154.545L73.532 154.354C73.4919 154.148 73.4954 153.81 73.5746 153.332C73.6513 152.869 73.7868 152.344 73.9556 151.795C74.2956 150.689 74.7355 149.595 75.0272 148.816L74.0907 148.465L73.1542 148.115C72.8848 148.834 72.4074 150.025 72.044 151.207C71.8611 151.802 71.6983 152.421 71.6015 153.005C71.5072 153.575 71.4619 154.187 71.569 154.737L72.5505 154.545Z" fill="var(--stroke-0, white)" mask="url(#path-92-inside-7_0_5)"/>
</g>
<path id="Vector_87" d="M242.925 131.485C243.003 131.543 243.066 131.595 243.121 131.653C243.218 131.757 243.304 131.894 243.365 132.164C245.012 139.612 246.251 147.208 248.408 154.597C247.595 154.708 246.373 154.76 245.08 154.777C243.484 154.799 241.884 154.773 240.926 154.776H240.926C238.364 154.79 237.342 154.665 234.992 154.252C235.702 151.851 237.063 146.928 238.579 142.17C239.397 139.602 240.253 137.104 241.065 135.11C241.471 134.114 241.864 133.252 242.23 132.574C242.487 132.099 242.721 131.737 242.925 131.485Z" stroke="var(--stroke-0, white)"/>
<g id="Vector_88">
<mask id="path-95-inside-8_0_5" fill="white">
<path d="M244.712 148.433C245.573 149.979 245.659 152.929 245.831 154.817C244.677 153.052 244.415 150.483 244.712 148.433Z"/>
</mask>
<path d="M244.712 148.433L245.585 147.946L244.145 145.364L243.722 148.29L244.712 148.433ZM245.831 154.817L244.994 155.364L246.827 154.727L245.831 154.817ZM244.712 148.433L243.838 148.92C244.169 149.513 244.389 150.47 244.538 151.625C244.686 152.77 244.744 153.908 244.835 154.908L245.831 154.817L246.827 154.727C246.746 153.838 246.675 152.557 246.522 151.368C246.37 150.19 246.116 148.899 245.585 147.946L244.712 148.433ZM245.831 154.817L246.668 154.27C245.693 152.779 245.426 150.484 245.701 148.576L244.712 148.433L243.722 148.29C243.405 150.482 243.66 153.325 244.994 155.364L245.831 154.817Z" fill="var(--stroke-0, white)" mask="url(#path-95-inside-8_0_5)"/>
</g>
<path id="Vector_89" d="M184.488 167.805C184.568 170.188 184.644 179.534 184.604 188.529C184.584 193.111 184.534 197.595 184.44 201.015C184.393 202.725 184.336 204.165 184.266 205.214C184.265 205.234 184.263 205.255 184.261 205.275C183.979 204.323 183.589 203.058 183.226 201.843C182.95 200.921 182.689 200.021 182.497 199.285C182.4 198.918 182.323 198.596 182.27 198.336C182.215 198.066 182.193 197.896 182.193 197.816C182.191 193.808 181.978 188.161 181.866 182.612C181.755 177.152 181.743 171.786 182.113 168.079C182.375 167.912 182.706 167.811 183.11 167.748C183.524 167.684 183.932 167.666 184.382 167.635L184.488 167.805Z" stroke="var(--stroke-0, white)"/>
<path id="Vector_90" d="M84.9162 364.992C85.415 365.045 85.913 365.114 86.4231 365.184C86.4313 365.259 86.4431 365.347 86.4514 365.449C86.4803 365.807 86.5068 366.303 86.5305 366.924C86.5779 368.164 86.6131 369.878 86.6379 371.914C86.6875 375.987 86.6928 381.337 86.6594 386.738C86.626 392.14 86.5542 397.59 86.4485 401.862C86.3956 403.997 86.3345 405.836 86.2658 407.226C86.2315 407.921 86.195 408.5 86.1574 408.946C86.1349 409.215 86.111 409.424 86.0901 409.578C85.9171 409.648 85.7782 409.708 85.6643 409.758C85.4875 409.836 85.402 409.873 85.3274 409.894C85.2593 409.913 85.1911 409.923 84.9856 409.888C84.6346 405.682 84.8466 398.494 84.8508 394.205L84.9162 364.992Z" stroke="var(--stroke-0, white)"/>
<path id="Vector_91" d="M161.483 0.499023C161.467 0.502907 161.493 0.49021 161.592 0.533203C161.688 0.575336 161.809 0.651791 161.956 0.764648C162.1 0.875894 162.251 1.00691 162.409 1.14746L162.883 1.55859C165.227 3.55937 167.638 5.58852 169.611 7.89746L164.597 8.47852C160.284 8.67656 157.304 8.40491 153.261 7.88867C154.159 6.83694 155.436 5.35968 156.794 3.98926C157.643 3.13201 158.515 2.32639 159.336 1.69727C160.168 1.05958 160.903 0.638696 161.483 0.499023Z" stroke="var(--stroke-0, white)"/>
<path id="Vector_92" d="M163.414 2.01387C165.587 3.86811 167.784 5.76294 169.607 7.89668L165.209 8.40645L165.287 7.8L165.299 7.71016L165.278 7.62129C164.855 5.82586 163.995 4.01191 163.282 2.36836L163.414 2.01387Z" stroke="var(--stroke-0, white)"/>
<path id="Vector_93" d="M164.713 5.02305C165.44 5.78095 166.059 6.5165 166.39 7.12364L166.319 7.24669C165.903 7.26306 165.567 7.27662 165.186 7.26133C164.939 6.3381 164.587 5.41392 164.21 4.51329C164.378 4.68088 164.547 4.85033 164.713 5.02305Z" stroke="var(--stroke-0, white)"/>
<path id="Vector_94" d="M101.012 303.471C101.057 303.916 101.104 304.494 101.145 305.192C101.236 306.728 101.314 308.82 101.382 311.293C101.517 316.237 101.605 322.688 101.645 329.219C101.685 335.749 101.677 342.357 101.619 347.615C101.563 352.596 101.462 356.322 101.321 357.647C100.937 357.917 100.738 358.053 100.53 358.164C100.567 358.103 100.604 358.042 100.64 357.981L100.71 357.867L100.712 357.733C100.986 343.564 100.714 328.833 100.785 314.733C100.789 313.825 100.773 312.721 100.757 311.555C100.742 310.385 100.728 309.148 100.738 307.966C100.748 306.782 100.782 305.66 100.861 304.718C100.901 304.24 100.951 303.821 101.012 303.471Z" stroke="var(--stroke-0, white)"/>
<path id="Vector_95" d="M101.192 243.598C101.244 243.767 101.282 243.925 101.296 244.092L101.303 244.238C101.518 261.987 101.49 279.774 101.344 297.526C101.341 297.929 101.212 298.201 100.96 298.537L100.946 298.528C100.924 298.368 100.9 298.117 100.877 297.766C100.844 297.25 100.814 296.563 100.788 295.726C100.735 294.053 100.699 291.796 100.676 289.152C100.63 283.865 100.639 277.036 100.687 270.236C100.735 263.436 100.822 256.668 100.932 251.502C100.987 248.918 101.049 246.738 101.114 245.155C101.139 244.54 101.166 244.018 101.192 243.598Z" stroke="var(--stroke-0, white)"/>
<path id="Vector_96" d="M265.247 243.276C265.301 243.358 265.33 243.439 265.335 243.531C265.463 249.1 265.805 257.352 265.589 263.024L265.538 264.123C265.395 266.744 265.625 274.822 265.675 282.532C265.699 286.401 265.679 290.188 265.545 293.182C265.478 294.68 265.383 295.971 265.253 296.97C265.188 297.469 265.115 297.888 265.035 298.219C265.022 298.272 265.007 298.322 264.994 298.369L264.941 298.333C265.005 293.98 264.779 281.328 264.705 269.135C264.667 262.9 264.67 256.781 264.771 251.935C264.822 249.511 264.897 247.41 265.005 245.776C265.074 244.716 265.156 243.876 265.247 243.276Z" stroke="var(--stroke-0, white)"/>
<path id="Vector_97" d="M265.303 303.067C265.338 303.17 265.366 303.318 265.369 303.541C265.661 321.511 265.699 339.687 265.387 357.656C265.308 357.762 265.23 357.867 265.152 357.973C265.151 357.949 265.15 357.925 265.148 357.901C265.127 357.471 265.107 356.858 265.088 356.086C265.05 354.543 265.018 352.374 264.993 349.784C264.943 344.605 264.919 337.745 264.929 330.843C264.938 323.941 264.98 316.996 265.06 311.646C265.101 308.97 265.15 306.695 265.21 305.025C265.239 304.223 265.27 303.563 265.303 303.067Z" stroke="var(--stroke-0, white)"/>
<path id="Vector_98" d="M93.1088 364.184C93.1893 364.205 93.2373 364.217 93.2748 364.228C93.3092 364.238 93.3165 364.242 93.3139 364.241C93.2986 364.233 93.3035 364.226 93.3852 364.318C93.4257 364.364 93.4739 364.42 93.5434 364.502C93.5837 364.549 93.6298 364.602 93.6821 364.662C93.7413 365.548 93.8216 367.011 93.8706 368.456C93.9231 370.005 93.94 371.492 93.8696 372.232C93.7321 373.675 93.7385 376.141 93.7875 379.047C93.8369 381.972 93.9296 385.351 93.9711 388.677C94.0126 392 94.0023 395.242 93.8461 397.865C93.768 399.177 93.6542 400.323 93.4946 401.242C93.3608 402.012 93.1991 402.579 93.0258 402.948L93.0131 402.949C93.0055 402.901 92.9976 402.848 92.9897 402.79C92.9476 402.477 92.9083 402.045 92.8715 401.505C92.7981 400.428 92.7378 398.948 92.6909 397.19C92.597 393.675 92.5556 389.067 92.5581 384.383C92.5605 379.7 92.6073 374.942 92.6899 371.128C92.7597 367.905 92.8557 365.389 92.9672 364.146C93.0201 364.16 93.0669 364.173 93.1088 364.184Z" stroke="var(--stroke-0, white)"/>
<path id="Vector_99" d="M265.383 362.808C265.553 364.493 265.632 369.15 265.65 373.986C265.669 379.068 265.622 384.281 265.554 386.285C265.402 390.823 265.54 396.682 265.615 402.448C265.684 407.768 265.698 413.007 265.389 417.111C265.366 416.712 265.343 416.188 265.322 415.553C265.272 414.076 265.227 412.011 265.187 409.544C265.108 404.609 265.051 398.07 265.019 391.413C264.96 379.063 264.992 366.348 265.139 362.676C265.213 362.716 265.292 362.758 265.383 362.808Z" stroke="var(--stroke-0, white)"/>
<path id="Vector_100" d="M227.095 364.126C227.335 364.175 227.523 364.218 227.673 364.266C227.923 364.345 227.994 364.413 228.025 364.453C228.06 364.5 228.105 364.597 228.129 364.87C228.153 365.146 228.151 365.503 228.158 366.033C228.309 377.568 228.168 389.166 228.211 400.711C227.907 400.445 227.603 400.174 227.295 399.901C227.273 399.806 227.244 399.651 227.216 399.419C227.178 399.098 227.143 398.675 227.113 398.161C227.051 397.136 227.006 395.77 226.974 394.168C226.909 390.965 226.897 386.838 226.911 382.641C226.938 374.899 227.053 366.933 227.095 364.126Z" stroke="var(--stroke-0, white)"/>
<path id="Vector_101" d="M156.331 187.608C159.986 187.49 163.003 187.48 166.653 187.605C166.634 189.545 166.667 191.174 166.773 193.135L166.378 193.408C165.271 193.279 163.263 193.239 161.269 193.233C159.428 193.227 157.526 193.245 156.32 193.25L156.331 187.608Z" stroke="var(--stroke-0, white)"/>
<path id="Vector_102" d="M100.968 200.905C101.01 200.935 101.059 200.968 101.114 201.007C101.176 201.393 101.237 202.109 101.289 203.121C101.35 204.295 101.397 205.82 101.433 207.581C101.505 211.103 101.53 215.557 101.514 220.014C101.498 224.471 101.443 228.93 101.353 232.458C101.308 234.223 101.254 235.753 101.194 236.933C101.151 237.758 101.105 238.394 101.059 238.818C101.046 238.816 101.049 238.815 101.056 238.818C101.051 238.815 101.03 238.802 100.969 238.761C100.932 238.736 100.884 238.705 100.826 238.665C100.74 233.109 100.757 227.537 100.783 221.959C100.808 216.296 100.842 210.627 100.781 204.971C100.766 203.601 100.826 202.245 100.924 200.874C100.938 200.884 100.953 200.893 100.968 200.905Z" stroke="var(--stroke-0, white)"/>
<path id="Vector_103" d="M265.331 201.136C265.265 203.963 265.569 212.708 265.67 221.106C265.721 225.381 265.72 229.575 265.592 232.885C265.528 234.542 265.432 235.968 265.297 237.069C265.229 237.62 265.153 238.081 265.068 238.444C265.055 238.503 265.039 238.557 265.025 238.609C265.019 238.6 265.011 238.592 265.004 238.583C264.939 235.984 264.825 227.066 264.85 218.435C264.863 214.023 264.912 209.691 265.022 206.319C265.077 204.632 265.147 203.191 265.235 202.103C265.265 201.737 265.298 201.414 265.331 201.136Z" stroke="var(--stroke-0, white)"/>
<path id="Vector_104" d="M176.156 168.005C176.426 168.069 176.615 168.108 176.755 168.133C176.936 168.166 176.967 168.172 176.985 168.179L176.991 168.183C177.003 168.192 177.026 168.21 177.069 168.25C177.152 168.328 177.23 168.406 177.377 168.548C177.467 170.105 177.524 173.726 177.517 177.342C177.512 180.376 177.459 183.364 177.351 185.114C176.515 183.235 175.942 182.151 174.743 180.217C174.761 178.467 174.654 176.442 174.618 174.49C174.58 172.457 174.62 170.472 174.94 168.784C174.974 168.605 175.063 168.495 175.284 168.374C175.404 168.309 175.548 168.249 175.729 168.178C175.857 168.128 176.003 168.068 176.156 168.005Z" stroke="var(--stroke-0, white)"/>
<path id="Vector_105" d="M160.762 320.874C160.766 321.101 160.771 321.367 160.774 321.668C153.154 321.553 142.563 321.745 134.89 323.168L135.417 322.736C136.323 322.425 138.019 322.152 140.19 321.924C142.4 321.692 145.047 321.51 147.727 321.366C152.986 321.083 158.35 320.949 160.762 320.874Z" stroke="var(--stroke-0, white)"/>
<path id="Vector_106" d="M221.711 362.729C221.736 362.813 221.765 362.932 221.794 363.092C221.847 363.38 221.894 363.755 221.937 364.211C222.023 365.122 222.086 366.326 222.131 367.735C222.222 370.551 222.238 374.16 222.218 377.837C222.184 384.281 222.041 390.905 221.989 393.818C221.954 393.703 221.917 393.548 221.88 393.348C221.823 393.039 221.771 392.651 221.723 392.191C221.628 391.27 221.555 390.085 221.5 388.711C221.389 385.966 221.352 382.495 221.352 378.944C221.352 372.42 221.475 365.672 221.506 362.649L221.711 362.729Z" stroke="var(--stroke-0, white)"/>
<path id="Vector_107" d="M101.07 362.679C101.086 362.75 101.106 362.84 101.124 362.951C101.166 363.219 101.205 363.579 101.241 364.024C101.312 364.913 101.367 366.11 101.408 367.522C101.489 370.345 101.512 374.002 101.497 377.72C101.468 384.684 101.306 391.812 101.145 394.059L101.057 394.069C101.028 393.827 101 393.491 100.974 393.07C100.922 392.22 100.878 391.047 100.843 389.648C100.773 386.851 100.738 383.166 100.731 379.387C100.719 372.489 100.804 365.315 100.949 362.635L101.07 362.679Z" stroke="var(--stroke-0, white)"/>
<path id="Vector_108" d="M177.841 253.028C178.143 253.074 178.341 253.107 178.533 253.165C178.778 253.238 179.017 253.355 179.451 253.635C179.687 254.117 179.858 254.808 179.966 255.663C180.081 256.572 180.121 257.62 180.123 258.707C180.125 259.792 180.088 260.904 180.05 261.942C180.021 262.723 179.992 263.467 179.978 264.119L178.867 263.907C178.612 263.57 178.385 262.953 178.214 262.074C178.029 261.12 177.925 259.957 177.871 258.747C177.777 256.631 177.831 254.451 177.841 253.028Z" stroke="var(--stroke-0, white)"/>
<path id="Vector_109" d="M96.9518 182.564C98.5702 187.359 100.064 192.225 100.847 196.329L100.724 196.599L100.049 196.741L99.4401 196.68C99.5861 196.539 99.7279 196.365 99.8825 196.145L99.984 196.001L99.9723 195.826C99.9526 195.514 99.8513 194.93 99.6999 194.178C99.5458 193.413 99.3325 192.441 99.0788 191.331C98.5711 189.111 97.8979 186.332 97.1999 183.546C97.1178 183.219 97.0344 182.891 96.9518 182.564Z" stroke="var(--stroke-0, white)"/>
<path id="Vector_110" d="M260.361 180.812C260.989 182.721 261.922 185.556 262.777 188.353C263.384 190.34 263.944 192.288 264.316 193.84C264.502 194.617 264.638 195.285 264.71 195.805C264.746 196.064 264.765 196.278 264.768 196.443C264.768 196.481 264.765 196.514 264.764 196.543C264.389 196.709 264.157 196.791 263.93 196.846C263.789 196.879 263.648 196.903 263.472 196.928C263.552 196.882 263.635 196.836 263.722 196.789L263.947 196.667L263.98 196.412C264.07 195.701 263.923 194.512 263.671 193.159C263.415 191.781 263.034 190.159 262.615 188.541C261.806 185.41 260.845 182.26 260.35 180.869L260.361 180.812Z" stroke="var(--stroke-0, white)"/>
<path id="Vector_111" d="M57.6076 422.415C57.7673 422.847 57.9052 423.609 57.9972 424.613C58.0995 425.731 58.1405 427.073 58.1222 428.423C58.1039 429.773 58.0261 431.122 57.8947 432.25C57.8349 432.764 57.7633 433.218 57.6867 433.601C57.599 433.296 57.5244 432.932 57.463 432.518C57.3026 431.433 57.2408 430.067 57.2355 428.649C57.2266 426.267 57.3734 423.801 57.4523 422.35L57.6076 422.415Z" stroke="var(--stroke-0, white)"/>
<path id="Vector_112" d="M158.16 176.482C156.735 177.637 155.88 178.545 155.098 179.516C154.026 180.845 153.159 182.191 151.106 184.479C151.061 184.47 151.024 184.463 150.995 184.457C150.993 184.454 150.99 184.451 150.987 184.447C150.962 184.416 150.927 184.376 150.885 184.326C151.355 182.812 152.749 181.05 154.471 179.425C155.663 178.299 156.976 177.276 158.16 176.482Z" stroke="var(--stroke-0, white)"/>
<path id="Vector_113" d="M265.404 422.69C265.822 426.136 265.579 429.822 265.351 433.4C265.34 433.355 265.329 433.307 265.319 433.256C265.247 432.887 265.19 432.426 265.148 431.893C265.064 430.83 265.041 429.522 265.054 428.183C265.074 426.066 265.184 423.895 265.271 422.536C265.308 422.58 265.352 422.63 265.404 422.69Z" stroke="var(--stroke-0, white)"/>
<path id="Vector_114" d="M140.718 240.753C140.673 241.92 140.473 243.355 140.189 244.806C139.906 246.256 139.542 247.707 139.178 248.904C139.017 249.434 138.858 249.903 138.711 250.296C138.712 250.271 138.714 250.246 138.716 250.22C138.749 249.811 138.814 249.315 138.905 248.757C139.086 247.642 139.363 246.302 139.67 244.942C140.02 243.385 140.404 241.819 140.721 240.548C140.72 240.615 140.72 240.683 140.718 240.753Z" stroke="var(--stroke-0, white)"/>
<path id="Vector_115" d="M143.97 237.04C144.269 237.361 144.612 237.698 144.942 238.029C145.265 238.352 145.579 238.676 145.86 239C144.916 238.235 143.987 237.503 142.974 236.753C143.151 236.679 143.326 236.607 143.501 236.536L143.97 237.04ZM148.736 234.608C148.283 234.809 147.798 235.001 147.297 235.182C146.464 235.484 145.621 235.753 144.834 236.009C146.124 235.515 147.393 235.069 148.736 234.608Z" stroke="var(--stroke-0, white)"/>
<path id="Vector_116" d="M153.707 233.452L154.157 236.474C153.828 235.413 153.603 234.296 153.359 233.156C153.457 233.14 153.556 233.123 153.654 233.105L153.707 233.452ZM158.503 232.207C157.423 232.564 156.642 232.671 155.52 232.768C156.498 232.582 157.474 232.391 158.423 232.213C158.451 232.211 158.477 232.209 158.503 232.207Z" stroke="var(--stroke-0, white)"/>
<path id="Vector_117" d="M163.167 232.04C163.822 232.137 164.348 232.263 164.894 232.421C164.641 232.513 164.367 232.631 164.046 232.8L163.811 232.922L163.781 233.184L163.659 234.224L163.655 234.257V234.288C163.665 235.163 163.698 235.615 163.648 236.058C163.62 236.313 163.562 236.565 163.441 236.888C162.901 235.052 163.009 234.07 163.167 232.04Z" stroke="var(--stroke-0, white)"/>
<path id="Vector_118" d="M63.444 423.768C63.5369 423.782 63.5774 423.789 63.5934 423.792C63.6038 423.801 63.623 423.819 63.6559 423.852C63.7142 423.909 63.8242 424.018 63.9723 424.163C64.4601 425.888 64.302 427.39 63.5563 429.014C63.5468 429.007 63.5352 428.999 63.5212 428.988C63.4732 428.953 63.4127 428.91 63.3346 428.858C63.0564 427.288 63.2183 425.503 63.3405 423.753C63.3785 423.758 63.413 423.764 63.444 423.768Z" stroke="var(--stroke-0, white)"/>
<path id="Vector_119" d="M190.348 163.036C190.644 163.038 190.94 163.045 191.236 163.054C189.464 163.25 187.654 163.396 186.059 163.448C187.247 163.123 188.761 163.024 190.348 163.036Z" stroke="var(--stroke-0, white)"/>
<g id="Vector_120">
<mask id="path-128-inside-9_0_5" fill="white">
<path d="M259.833 180.908C258.886 177.525 257.728 173.16 257.408 169.686C258.441 172.731 259.611 175.654 260.227 178.798L259.833 180.908Z"/>
</mask>
<path d="M259.833 180.908L258.87 181.178L260.816 181.092L259.833 180.908ZM257.408 169.686L258.355 169.365L256.412 169.778L257.408 169.686ZM260.227 178.798L261.21 178.981L261.245 178.793L261.208 178.606L260.227 178.798ZM259.833 180.908L260.796 180.639C259.845 177.244 258.714 172.964 258.404 169.594L257.408 169.686L256.412 169.778C256.741 173.356 257.926 177.806 258.87 181.178L259.833 180.908ZM257.408 169.686L256.461 170.007C257.517 173.119 258.647 175.933 259.246 178.99L260.227 178.798L261.208 178.606C260.575 175.375 259.365 172.343 258.355 169.365L257.408 169.686ZM260.227 178.798L259.244 178.614L258.85 180.725L259.833 180.908L260.816 181.092L261.21 178.981L260.227 178.798Z" fill="var(--stroke-0, white)" mask="url(#path-128-inside-9_0_5)"/>
</g>
<path id="Vector_121" d="M257.555 424.039C258.192 424.967 258.185 426.239 257.548 427.179C257.076 426.486 256.891 425.996 256.895 425.562C256.898 425.133 257.086 424.673 257.555 424.039Z" stroke="var(--stroke-0, white)"/>
<path id="Vector_122" d="M172.62 234.288C172.628 234.296 172.637 234.304 172.645 234.312C172.624 235.833 172.2 237.159 171.73 238.687C171.715 238.67 171.7 238.652 171.683 238.633C171.721 237.186 172.164 235.781 172.616 234.284C172.617 234.285 172.619 234.287 172.62 234.288Z" stroke="var(--stroke-0, white)"/>
<path id="Vector_123" d="M181.711 239.286C181.707 239.36 181.704 239.454 181.703 239.576C180.92 240.549 179.861 241.2 178.687 241.895C179.034 241.522 179.444 241.143 179.886 240.765C180.501 240.239 181.131 239.748 181.711 239.286Z" stroke="var(--stroke-0, white)"/>
<path id="Vector_124" d="M167.856 194.176L167.478 194.582L167.174 194.068L167.568 193.796L167.731 193.683L167.773 193.489C167.782 193.448 167.788 193.407 167.796 193.367C167.817 193.64 167.837 193.91 167.856 194.176Z" stroke="var(--stroke-0, white)"/>
<path id="Vector_125" d="M97.4358 359.397C96.9666 359.511 96.4905 359.577 95.8196 359.671C95.809 359.624 95.7965 359.573 95.7756 359.521C96.3355 359.475 96.8958 359.432 97.4563 359.392C97.4494 359.393 97.4427 359.396 97.4358 359.397Z" stroke="var(--stroke-0, white)"/>
<path id="Vector_126" d="M208.11 357.19C208.091 357.636 208.063 358.091 208.029 358.551L207.827 357.283L208.11 357.19Z" stroke="var(--stroke-0, white)"/>
<path id="Vector_127" d="M196.965 319.636L196.818 319.71C196.822 319.363 196.836 319.015 196.853 318.665L196.965 319.636Z" stroke="var(--stroke-0, white)"/>
<path id="Vector_128" d="M260.7 419.217C260.491 419.25 260.261 419.279 259.989 419.309L259.896 419.259C260.092 419.239 260.276 419.225 260.461 419.218C260.54 419.216 260.619 419.217 260.7 419.217Z" stroke="var(--stroke-0, white)"/>
</g>
</svg>
