<svg preserveAspectRatio="none" width="100%" height="100%" overflow="visible" style="display: block;" viewBox="0 0 40 651.5" fill="none" xmlns="http://www.w3.org/2000/svg">
<g id="Frame 2147237286" opacity="0.2">
<mask id="path-1-inside-1_0_136" fill="white">
<path d="M0 0.75H40V650.75H0V0.75Z"/>
</mask>
<path d="M40 0.75H38.5V650.75H40H41.5V0.75H40Z" fill="var(--stroke-0, #27C3CC)" mask="url(#path-1-inside-1_0_136)"/>
<path id="Vector 8343" d="M0 0.75C8.69903 0.75 30.2913 0.75 40 0.75" stroke="var(--stroke-0, #27C3CC)" stroke-width="1.5"/>
<path id="Vector 8344" d="M0 33.25C8.69903 33.25 30.2913 33.25 40 33.25" stroke="var(--stroke-0, #27C3CC)" stroke-width="1.5"/>
<path id="Vector 8345" d="M0 65.75C8.69903 65.75 30.2913 65.75 40 65.75" stroke="var(--stroke-0, #27C3CC)" stroke-width="1.5"/>
<path id="Vector 8346" d="M0 98.25C8.69903 98.25 30.2913 98.25 40 98.25" stroke="var(--stroke-0, #27C3CC)" stroke-width="1.5"/>
<path id="Vector 8347" d="M0 130.75C8.69903 130.75 30.2913 130.75 40 130.75" stroke="var(--stroke-0, #27C3CC)" stroke-width="1.5"/>
<path id="Vector 8348" d="M0 163.25C8.69903 163.25 30.2913 163.25 40 163.25" stroke="var(--stroke-0, #27C3CC)" stroke-width="1.5"/>
<path id="Vector 8349" d="M0 195.75C8.69903 195.75 30.2913 195.75 40 195.75" stroke="var(--stroke-0, #27C3CC)" stroke-width="1.5"/>
<path id="Vector 8350" d="M0 228.25C8.69903 228.25 30.2913 228.25 40 228.25" stroke="var(--stroke-0, #27C3CC)" stroke-width="1.5"/>
<path id="Vector 8351" d="M0 260.75C8.69903 260.75 30.2913 260.75 40 260.75" stroke="var(--stroke-0, #27C3CC)" stroke-width="1.5"/>
<path id="Vector 8352" d="M0 293.25C8.69903 293.25 30.2913 293.25 40 293.25" stroke="var(--stroke-0, #27C3CC)" stroke-width="1.5"/>
<path id="Vector 8353" d="M0 325.75C8.69903 325.75 30.2913 325.75 40 325.75" stroke="var(--stroke-0, #27C3CC)" stroke-width="1.5"/>
<path id="Vector 8354" d="M0 358.25C8.69903 358.25 30.2913 358.25 40 358.25" stroke="var(--stroke-0, #27C3CC)" stroke-width="1.5"/>
<path id="Vector 8355" d="M0 390.75C8.69903 390.75 30.2913 390.75 40 390.75" stroke="var(--stroke-0, #27C3CC)" stroke-width="1.5"/>
<path id="Vector 8356" d="M0 423.25C8.69903 423.25 30.2913 423.25 40 423.25" stroke="var(--stroke-0, #27C3CC)" stroke-width="1.5"/>
<path id="Vector 8357" d="M0 455.75C8.69903 455.75 30.2913 455.75 40 455.75" stroke="var(--stroke-0, #27C3CC)" stroke-width="1.5"/>
<path id="Vector 8358" d="M0 488.25C8.69903 488.25 30.2913 488.25 40 488.25" stroke="var(--stroke-0, #27C3CC)" stroke-width="1.5"/>
<path id="Vector 8359" d="M0 520.75C8.69903 520.75 30.2913 520.75 40 520.75" stroke="var(--stroke-0, #27C3CC)" stroke-width="1.5"/>
<path id="Vector 8360" d="M0 553.25C8.69903 553.25 30.2913 553.25 40 553.25" stroke="var(--stroke-0, #27C3CC)" stroke-width="1.5"/>
<path id="Vector 8361" d="M0 585.75C8.69903 585.75 30.2913 585.75 40 585.75" stroke="var(--stroke-0, #27C3CC)" stroke-width="1.5"/>
<path id="Vector 8362" d="M0 618.25C8.69903 618.25 30.2913 618.25 40 618.25" stroke="var(--stroke-0, #27C3CC)" stroke-width="1.5"/>
<path id="Vector 8363" d="M0 650.75C8.69903 650.75 30.2913 650.75 40 650.75" stroke="var(--stroke-0, #27C3CC)" stroke-width="1.5"/>
</g>
</svg>
