<svg preserveAspectRatio="none" width="100%" height="100%" overflow="visible" style="display: block;" viewBox="0 0 41.0865 41" fill="none" xmlns="http://www.w3.org/2000/svg">
<g id="Frame 2147237268">
<path id="Vector 7820" d="M0.500588 10.5L10.0865 0.5H40.5021V30.5L31.9959 40.5L0.588329 40.5L0.500588 10.5Z" stroke="var(--stroke-0, white)" stroke-opacity="0.6"/>
<g id="Frame">
<path id="Vector" d="M18.7575 12.636C18.8126 12.0563 19.0819 11.518 19.5126 11.1263C19.9434 10.7345 20.5048 10.5174 21.087 10.5174C21.6693 10.5174 22.2307 10.7345 22.6614 11.1263C23.0922 11.518 23.3614 12.0563 23.4165 12.636C23.4496 13.0105 23.5725 13.3714 23.7747 13.6883C23.9768 14.0053 24.2524 14.2688 24.578 14.4567C24.9036 14.6445 25.2697 14.7512 25.6452 14.7676C26.0208 14.784 26.3948 14.7097 26.7355 14.551C27.2646 14.3108 27.8642 14.276 28.4175 14.4535C28.9709 14.631 29.4384 15.008 29.729 15.5111C30.0197 16.0143 30.1128 16.6076 29.9902 17.1756C29.8675 17.7436 29.5379 18.2456 29.0655 18.584C28.7579 18.7998 28.5068 19.0866 28.3334 19.42C28.1601 19.7534 28.0696 20.1237 28.0696 20.4995C28.0696 20.8753 28.1601 21.2456 28.3334 21.579C28.5068 21.9124 28.7579 22.1992 29.0655 22.415C29.5379 22.7534 29.8675 23.2554 29.9902 23.8234C30.1128 24.3914 30.0197 24.9847 29.729 25.4879C29.4384 25.9911 28.9709 26.368 28.4175 26.5455C27.8642 26.723 27.2646 26.6882 26.7355 26.448C26.3948 26.2893 26.0208 26.215 25.6452 26.2314C25.2697 26.2478 24.9036 26.3545 24.578 26.5423C24.2524 26.7302 23.9768 26.9937 23.7747 27.3107C23.5725 27.6276 23.4496 27.9885 23.4165 28.363C23.3614 28.9427 23.0922 29.481 22.6614 29.8727C22.2307 30.2645 21.6693 30.4816 21.087 30.4816C20.5048 30.4816 19.9434 30.2645 19.5126 29.8727C19.0819 29.481 18.8126 28.9427 18.7575 28.363C18.7245 27.9884 18.6016 27.6273 18.3994 27.3103C18.1972 26.9932 17.9215 26.7296 17.5958 26.5417C17.27 26.3538 16.9038 26.2472 16.5281 26.2309C16.1524 26.2146 15.7783 26.2891 15.4375 26.448C14.9084 26.6882 14.3089 26.723 13.7555 26.5455C13.2022 26.368 12.7347 25.9911 12.444 25.4879C12.1533 24.9847 12.0602 24.3914 12.1829 23.8234C12.3055 23.2554 12.6351 22.7534 13.1075 22.415C13.4151 22.1992 13.6663 21.9124 13.8396 21.579C14.013 21.2456 14.1035 20.8753 14.1035 20.4995C14.1035 20.1237 14.013 19.7534 13.8396 19.42C13.6663 19.0866 13.4151 18.7998 13.1075 18.584C12.6358 18.2454 12.3068 17.7436 12.1844 17.176C12.0621 16.6084 12.1551 16.0155 12.4455 15.5127C12.7359 15.0099 13.2028 14.633 13.7556 14.4552C14.3084 14.2775 14.9075 14.3116 15.4365 14.551C15.7773 14.7097 16.1513 14.784 16.5268 14.7676C16.9024 14.7512 17.2685 14.6445 17.5941 14.4567C17.9197 14.2688 18.1952 14.0053 18.3974 13.6883C18.5996 13.3714 18.7224 13.0105 18.7555 12.636" stroke="var(--stroke-0, white)" stroke-opacity="0.6" stroke-width="2" stroke-linecap="round" stroke-linejoin="round"/>
<path id="Vector_2" d="M21.0865 23.5C22.7434 23.5 24.0865 22.1569 24.0865 20.5C24.0865 18.8431 22.7434 17.5 21.0865 17.5C19.4297 17.5 18.0865 18.8431 18.0865 20.5C18.0865 22.1569 19.4297 23.5 21.0865 23.5Z" stroke="var(--stroke-0, white)" stroke-opacity="0.6" stroke-width="2" stroke-linecap="round" stroke-linejoin="round"/>
</g>
</g>
</svg>
