<svg preserveAspectRatio="none" width="100%" height="100%" overflow="visible" style="display: block;" viewBox="0 0 300 428" fill="none" xmlns="http://www.w3.org/2000/svg">
<g id="Jerry can" clip-path="url(#clip0_0_4)">
<path id="Vector" opacity="0.4" d="M2.02234 81.6827L2.01062 69.2286C2.00996 67.3585 1.97308 65.3344 2.03602 63.4834L2.06922 62.7012C2.1548 61.0701 3.24098 59.1646 4.94129 57.5157C6.62991 55.878 8.67932 54.7341 10.3104 54.4512C13.0785 53.9711 16.9632 54.1999 20.119 54.2481H20.1229C23.5187 54.2896 26.9147 54.2946 30.3104 54.2618L30.3095 54.2608C50.1098 54.2226 70.1806 54.41 90.0067 54.3555C92.5626 54.4329 95.5368 53.7913 98.243 52.6446C100.944 51.5 103.521 49.7912 105.174 47.6172C109.235 42.2736 111.66 35.6584 114.126 29.4161C116.626 23.0865 119.178 17.1059 123.453 12.545C128.652 6.99789 136.687 4.0966 144.439 3.99712C153.442 4.26178 163.486 4.08061 172.474 4.0811H172.475L223.735 4.06645L241.378 4.06743H241.379C247.711 4.0634 254.209 3.78729 260.118 5.15727C261.658 5.51407 263.979 6.55792 266.275 7.877C268.425 9.11196 270.392 10.4949 271.546 11.6075L271.766 11.8262C276.639 16.8472 279.419 23.9944 282.071 30.9151L283.206 33.8604L291.481 55.3506C292.537 58.1418 293.988 61.5701 295.248 64.8077C296.539 68.1262 297.692 71.3932 298.298 74.1895L298.299 74.1905C298.372 74.5273 298.437 75.259 298.483 76.3086C298.528 77.3217 298.55 78.5338 298.56 79.7676C298.581 82.2457 298.551 84.7298 298.551 85.8545V104.954L298.469 169.498V169.501L298.593 395.687V395.688C298.595 397.69 298.639 400.319 298.258 401.962V401.963C296.95 407.608 293.513 413.569 289.408 417.619C285.081 421.889 280.624 424.732 274.757 425.858L274.756 425.859C270.291 426.718 265.096 426.492 260.24 426.499H260.241L239.108 426.484H239.107L155.79 426.47L67.7528 426.46H67.7518L41.8446 426.48H41.8397C37.4027 426.5 32.2518 426.808 28.1473 426.322H28.1464C15.3453 424.812 4.42485 413.478 2.19617 400.864C1.85646 398.941 1.79119 396.183 1.8241 393.259C1.85555 390.466 1.98438 387.299 1.995 385.106V385.102L2.0243 354.516V354.509L1.75769 289.456C1.75626 288.146 1.81422 286.807 1.87488 285.428C1.935 284.061 1.99805 282.655 2.00379 281.257C2.18158 266.298 2.15149 251.339 1.91297 236.382L1.79773 229.972C1.68232 223.214 1.8623 216.614 1.84266 209.82L2.04383 121.963V121.959L2.02234 81.6836V81.6827Z" stroke="var(--stroke-0, white)" stroke-width="2.68433"/>
<path id="Vector_2" opacity="0.4" d="M44.0091 0.669351C54.0742 0.398126 64.7382 0.319041 74.7364 1.13445C75.9441 1.23288 79.4378 4.12958 79.6441 5.23332C80.86 11.7412 80.3124 19.1008 80.3878 25.81C76.1312 25.8935 71.1831 25.7059 66.8743 25.6523C54.7958 25.9012 41.909 25.6855 29.7257 25.7877C29.8474 19.0608 29.6538 12.7793 29.977 5.99618C30.5566 4.98367 31.2636 4.05 32.0809 3.21798C35.2978 -0.0121827 39.5924 0.690177 44.0091 0.669351Z" fill="var(--fill-0, white)"/>
<path id="Vector_3" opacity="0.4" d="M25.5965 32.1602C25.8633 32.1471 26.13 32.1352 26.3967 32.1252C30.3429 31.9703 34.702 32.1042 38.6884 32.1079L62.0052 32.1136L77.3786 32.1175C82.9891 32.1272 89.0552 31.2612 93.2743 35.5428C96.9081 39.2306 97.5112 41.8735 97.6553 46.818L84.9494 46.91C69.016 46.6559 52.6287 46.9283 36.64 46.9048L22.0215 46.8842C19.6831 46.883 14.7989 46.7635 12.738 47.1889C13.6675 38.4095 15.8239 33.0249 25.5965 32.1602Z" fill="var(--fill-0, white)"/>
<path id="Vector 8367" opacity="0.4" d="M256 4C256 8.80572 256 286.002 256 424" stroke="var(--stroke-0, white)" stroke-width="2"/>
<path id="Vector 8368" opacity="0.4" d="M40 56C40 60.2679 40 306.445 40 429" stroke="var(--stroke-0, white)" stroke-width="2"/>
<path id="Vector 8369" opacity="0.4" d="M298 105C294.625 105 99.9269 105 3.00001 105" stroke="var(--stroke-0, white)" stroke-width="2"/>
<g id="Mask group">
<mask id="mask0_0_4" style="mask-type:alpha" maskUnits="userSpaceOnUse" x="0" y="1" width="300" height="426">
<path id="Vector_4" d="M144.037 1.65625C153.021 1.92128 163.025 1.7398 172.059 1.74029L223.32 1.72492L240.962 1.72616C247.199 1.7222 253.904 1.43659 260.005 2.85098C263.471 3.65399 269.831 7.33438 272.313 9.89267C278.121 15.876 281.058 24.7272 284.04 32.3736L292.318 53.8691C294.449 59.5056 297.935 67.0939 299.194 72.9067C299.598 74.7673 299.477 82.6648 299.477 84.8559V103.955L299.395 168.501L299.519 394.687C299.521 396.599 299.576 399.432 299.149 401.267C297.781 407.172 294.211 413.355 289.935 417.575C285.478 421.973 280.793 424.988 274.593 426.178C269.965 427.068 264.579 426.835 259.824 426.842L238.691 426.827L155.374 426.813L67.337 426.803L41.4299 426.823C37.1134 426.842 31.7868 427.155 27.5736 426.656C14.1236 425.07 2.77913 413.234 0.458381 400.099C-0.269673 395.979 0.214954 388.608 0.236768 384.101L0.266018 353.515L3.23661e-05 288.463C-0.00319021 285.771 0.235281 282.981 0.245941 280.242C0.448963 263.16 0.380545 246.078 0.0401912 228.999C-0.0753257 222.241 0.104643 215.547 0.0850593 208.818L0.285354 120.961L0.264036 80.6849L0.252386 68.2304C0.251642 66.1345 0.202557 63.7304 0.312868 61.6317C0.534482 57.4079 5.71638 52.8144 9.66528 52.1297C12.5968 51.6212 16.6868 51.8609 19.7232 51.9073C23.1094 51.9487 26.4958 51.9529 29.882 51.9202C49.7833 51.8817 69.7217 52.0697 89.6275 52.0146C94.2787 52.1569 100.759 49.6614 103.689 45.806C111.536 35.481 113.113 20.1722 122.058 10.628C127.564 4.75352 135.99 1.7522 144.037 1.65625Z" fill="var(--fill-0, #D9D9D9)"/>
</mask>
<g mask="url(#mask0_0_4)">
<g id="Group 1707479045">
<path id="Vector_5" d="M-129.787 427.349V215.707C-77.3954 220.36 -25.0036 225.014 20.0222 222.347C65.0481 219.679 102.708 209.689 156.137 211.142C209.566 212.594 278.765 225.488 333.336 228.156C387.906 230.824 427.848 223.265 467.791 215.707V427.349H-129.787Z" fill="var(--fill-0, #FCB900)" fill-opacity="0.265"/>
<path id="Vector_6" d="M-129.787 427.351V265.507C-86.0212 263.046 -42.2548 260.586 8.40276 265.092C59.0603 269.597 116.61 281.069 163.607 279.616C210.604 278.164 247.048 263.787 295.987 259.282C344.926 254.777 406.358 260.141 467.791 265.507V427.351H-129.787Z" fill="var(--fill-0, #FCB900)" fill-opacity="0.4"/>
<path id="Vector_7" d="M-129.787 427.348V315.303C-82.8789 321.438 -35.9711 327.574 21.2673 329.827C78.5057 332.08 146.074 330.449 188.506 324.017C230.938 317.585 248.234 306.351 290.592 304.098C332.95 301.845 400.371 308.574 467.791 315.303V427.348H-129.787Z" fill="var(--fill-0, #FCB900)" fill-opacity="0.53"/>
<path id="Vector_8" d="M-129.787 427.347V365.1C-69.2587 374.659 -8.7303 384.218 42.0165 380.869C92.7633 377.52 133.728 361.261 171.077 356.8C208.425 352.339 242.158 359.675 291.007 363.025C339.857 366.374 403.824 365.737 467.791 365.1V427.347H-129.787Z" fill="var(--fill-0, #FCB900)"/>
</g>
</g>
</g>
<g id="Group 1707479044">
<path id="Vector_9" d="M149 155V167M149 161H236M236 155V167" stroke="var(--stroke-0, white)" stroke-width="1.5"/>
<path id="Vector_10" d="M172 229V241M172 235H236M236 229V241" stroke="var(--stroke-0, white)" stroke-width="1.5"/>
<path id="Vector_11" d="M149 303V315M149 309H236M236 303V315" stroke="var(--stroke-0, white)" stroke-width="1.5"/>
<path id="Vector_12" d="M172 377V389M172 383H236M236 377V389" stroke="var(--stroke-0, white)" stroke-width="1.5"/>
</g>
</g>
<defs>
<clipPath id="clip0_0_4">
<rect width="300" height="428" fill="white"/>
</clipPath>
</defs>
</svg>
