<svg preserveAspectRatio="none" width="100%" height="100%" overflow="visible" style="display: block;" viewBox="0 0 299.522 425.281" fill="none" xmlns="http://www.w3.org/2000/svg">
<g id="Mask group">
<mask id="mask0_0_4" style="mask-type:alpha" maskUnits="userSpaceOnUse" x="0" y="0" width="300" height="426">
<path id="Vector" d="M144.037 0C153.021 0.265027 163.025 0.0835466 172.059 0.0840424L223.32 0.0686722L240.962 0.069913C247.199 0.0659463 253.904 -0.219658 260.005 1.19473C263.471 1.99774 269.831 5.67813 272.313 8.23642C278.121 14.2197 281.058 23.071 284.04 30.7174L292.318 52.2128C294.449 57.8493 297.935 65.4377 299.194 71.2504C299.598 73.111 299.477 81.0086 299.477 83.1997V102.299L299.395 166.845L299.519 393.031C299.521 394.942 299.576 397.776 299.149 399.611C297.781 405.516 294.211 411.699 289.935 415.919C285.478 420.317 280.793 423.332 274.593 424.522C269.965 425.412 264.579 425.179 259.824 425.186L238.691 425.171L155.374 425.156L67.337 425.146L41.4299 425.166C37.1134 425.186 31.7868 425.498 27.5736 425C14.1236 423.413 2.77913 411.578 0.458381 398.443C-0.269673 394.322 0.214954 386.952 0.236768 382.445L0.266018 351.859L3.23661e-05 286.807C-0.00319021 284.114 0.235281 281.325 0.245941 278.586C0.448963 261.504 0.380545 244.422 0.0401912 227.343C-0.0753257 220.585 0.104643 213.891 0.0850593 207.162L0.285354 119.304L0.264036 79.0287L0.252386 66.5741C0.251642 64.4782 0.202557 62.0741 0.312868 59.9755C0.534482 55.7516 5.71638 51.1582 9.66528 50.4734C12.5968 49.9649 16.6868 50.2047 19.7232 50.251C23.1094 50.2924 26.4958 50.2966 29.882 50.2639C49.7833 50.2255 69.7217 50.4134 89.6275 50.3584C94.2787 50.5007 100.759 48.0051 103.689 44.1497C111.536 33.8248 113.113 18.5159 122.058 8.97175C127.564 3.09727 135.99 0.0959453 144.037 0Z" fill="var(--fill-0, #D9D9D9)"/>
</mask>
<g mask="url(#mask0_0_4)">
<g id="Group 1707479045">
<path id="Vector_2" d="M-129.787 425.693V214.05C-77.3954 218.704 -25.0036 223.358 20.0222 220.69C65.0481 218.022 102.708 208.033 156.137 209.486C209.566 210.938 278.765 223.832 333.336 226.5C387.906 229.168 427.848 221.609 467.791 214.05V425.693H-129.787Z" fill="var(--fill-0, #FCB900)" fill-opacity="0.265"/>
<path id="Vector_3" d="M-129.787 425.695V263.851C-86.0212 261.39 -42.2548 258.93 8.40276 263.436C59.0603 267.941 116.61 279.412 163.607 277.96C210.604 276.508 247.048 262.131 295.987 257.626C344.926 253.12 406.358 258.485 467.791 263.851V425.695H-129.787Z" fill="var(--fill-0, #FCB900)" fill-opacity="0.4"/>
<path id="Vector_4" d="M-129.787 425.692V313.646C-82.8789 319.782 -35.9711 325.918 21.2673 328.171C78.5057 330.424 146.074 328.793 188.506 322.361C230.938 315.929 248.234 304.695 290.592 302.442C332.95 300.189 400.371 306.918 467.791 313.646V425.692H-129.787Z" fill="var(--fill-0, #FCB900)" fill-opacity="0.53"/>
<path id="Vector_5" d="M-129.787 425.691V363.443C-69.2587 373.003 -8.7303 382.562 42.0165 379.213C92.7633 375.863 133.728 359.605 171.077 355.144C208.425 350.682 242.158 358.019 291.007 361.368C339.857 364.718 403.824 364.081 467.791 363.443V425.691H-129.787Z" fill="var(--fill-0, #FCB900)"/>
</g>
</g>
</g>
</svg>
